<svg width="27" height="30" viewBox="0 0 27 30" fill="none" xmlns="http://www.w3.org/2000/svg">
<path fill-rule="evenodd" clip-rule="evenodd" d="M0.854354 21.294L11.2575 15.2878C11.2542 15.2409 11.2525 15.1934 11.2525 15.1457L11.2551 15.0484L0.854484 9.0435V21.294H0.854354ZM13.5955 13.286C13.9477 13.3683 14.2627 13.5481 14.5108 13.7953C14.6342 13.9191 14.7404 14.0595 14.8268 14.2124L25.0579 8.30532L13.5955 1.68742V13.286ZM15.0696 15.0552L15.0718 15.1457C15.0718 15.191 15.0702 15.2362 15.0672 15.2807L25.4828 21.2941V9.04363L15.0698 15.0554L15.0696 15.0552ZM14.8075 16.1141C14.7255 16.2533 14.6255 16.3809 14.5125 16.4945C14.2635 16.7429 13.9477 16.9236 13.5955 17.0055V28.6502L25.0579 22.0323L14.8075 16.1141ZM12.7415 17.0085C12.3842 16.9278 12.0639 16.7463 11.8134 16.4962C11.7011 16.3835 11.6026 16.2571 11.5205 16.1196L1.27913 22.0323L12.7415 28.6502V17.0085ZM11.5004 14.2066C11.5853 14.0563 11.6903 13.9189 11.8116 13.7971C12.0635 13.5457 12.384 13.3638 12.7414 13.2831V1.68755L1.279 8.30545L11.5004 14.2066ZM13.9095 14.3982C13.7187 14.2077 13.454 14.0899 13.162 14.0899C12.87 14.0899 12.6053 14.2081 12.4145 14.3982C12.224 14.5891 12.1062 14.8537 12.1062 15.1457C12.1062 15.4377 12.2244 15.7025 12.4145 15.8932C12.6054 16.0832 12.87 16.2016 13.162 16.2016C13.454 16.2016 13.7188 16.0837 13.9095 15.8932C14.0995 15.7024 14.2178 15.4377 14.2178 15.1457C14.2178 14.8537 14.0999 14.589 13.9095 14.3982ZM13.4079 0.595782L26.0969 7.92204C26.2386 7.99167 26.3364 8.13676 26.3364 8.30545V22.0323V22.039V22.0433L26.3359 22.0459L26.3351 22.0597V22.0652L26.3346 22.0665L26.3342 22.0734V22.076L26.3333 22.0803L26.3329 22.0868L26.3325 22.0871L26.3312 22.0974L26.3304 22.1008C26.3073 22.2395 26.219 22.3557 26.0969 22.4158L13.4079 29.7421L13.4071 29.7425L13.4045 29.7442L13.4015 29.7463L13.3985 29.7479L13.3981 29.7483L13.3952 29.7505L13.3918 29.7522L13.3897 29.7535L13.3884 29.7543L13.3851 29.7565L13.3817 29.7582L13.3812 29.7586L13.3804 29.759L13.3787 29.7603L13.3753 29.7619L13.3723 29.7636L13.3718 29.7641L13.3685 29.7658L13.3651 29.7675L13.3629 29.7688L13.3612 29.7692L13.3578 29.7709L13.3545 29.7726L13.3537 29.773L13.3511 29.7743L13.3477 29.7759L13.3443 29.7776H13.3438L13.3404 29.7793L13.3366 29.7806L13.3349 29.7815L13.3332 29.7823L13.3298 29.7836L13.3259 29.7853L13.3255 29.7857L13.3222 29.7866L13.3188 29.7879L13.3158 29.7892L13.315 29.7896L13.3117 29.7909L13.3078 29.7922L13.3061 29.7925L13.3039 29.7934L13.3 29.7947L13.2966 29.796H13.2957L13.2927 29.7969L13.2888 29.7982L13.2859 29.799H13.285L13.2811 29.8003L13.2772 29.8011L13.2755 29.8016L13.2733 29.8024L13.2694 29.8033L13.2655 29.8042H13.2651L13.2617 29.8051L13.2575 29.8059L13.2545 29.8068H13.2537L13.2498 29.8077L13.2459 29.8085H13.2442L13.242 29.809L13.2378 29.8099L13.2339 29.8103H13.2335L13.2301 29.8112L13.2258 29.8116L13.2228 29.812H13.2219L13.2177 29.8125L13.2138 29.8129L13.2121 29.8133H13.2095L13.2056 29.8138L13.2013 29.8142L13.1974 29.8147H13.1931L13.1902 29.8151H13.1889H13.185L13.1807 29.8155H13.1794H13.1764H13.1725H13.1683H13.164H13.1601H13.1571H13.1558L13.1515 29.8151H13.1476H13.1463L13.1434 29.8147H13.1391L13.1352 29.8142L13.1309 29.8138L13.127 29.8133H13.1244L13.1227 29.8129L13.1189 29.8125L13.1146 29.812H13.1137L13.1107 29.8116L13.1064 29.8112L13.103 29.8103H13.1026L13.0988 29.8099L13.0945 29.809L13.0923 29.8085H13.0906L13.0867 29.8077L13.0828 29.8068H13.0819L13.0789 29.8059L13.0746 29.8051L13.0713 29.8042H13.0709L13.067 29.8033L13.0631 29.8024L13.061 29.8016L13.0593 29.8011L13.0554 29.8003L13.0516 29.799H13.0506L13.0477 29.7982L13.0438 29.7969L13.0408 29.796H13.0404L13.0365 29.7947L13.0326 29.7934L13.0304 29.7925L13.0287 29.7922L13.0248 29.7909L13.0215 29.7896L13.0206 29.7892L13.0176 29.7879L13.0142 29.7866L13.0108 29.7857L13.0105 29.7853L13.0066 29.7836L13.0032 29.7823L13.0015 29.7815L12.9998 29.7806L12.9959 29.7793L12.9926 29.7776H12.9922L12.9888 29.7759L12.9854 29.7743L12.9828 29.773L12.9819 29.7726L12.9786 29.7709L12.9752 29.7692L12.9735 29.7688L12.9713 29.7675L12.9679 29.7658L12.9646 29.7641L12.9642 29.7636L12.9612 29.7619L12.9578 29.7603L12.9561 29.759L12.9552 29.7586L12.9548 29.7582L12.9515 29.7565L12.9481 29.7543L12.9468 29.7535L12.9446 29.7522L12.9412 29.7505L12.9382 29.7483L12.9378 29.7479L12.9349 29.7463L12.9319 29.7442L12.9293 29.7425L12.9285 29.7421L0.239489 22.4158C0.0977664 22.3462 0 22.2011 0 22.0324V8.30558V8.29871V8.29443L0.000388991 8.29184L0.00129664 8.2781V8.27252L0.00168563 8.27122L0.00220428 8.26435V8.26176L0.00311193 8.25748L0.00350092 8.251L0.00388991 8.25061L0.00518655 8.24036L0.00609419 8.23699C0.0291743 8.09825 0.117475 7.9822 0.239618 7.92191L12.9286 0.595652L12.9294 0.595263L12.932 0.593577L12.935 0.591373L12.938 0.589687L12.9384 0.589298L12.9413 0.587094L12.9447 0.58489L12.9469 0.584112L12.9482 0.583204L12.9516 0.581L12.955 0.578796H12.9553L12.9579 0.57711L12.9613 0.574906L12.9643 0.573609L12.9647 0.57322L12.9681 0.571535L12.9714 0.56933L12.9736 0.568552L12.9753 0.567645L12.9787 0.565959L12.9821 0.564273H12.983L12.9856 0.562588L12.9889 0.560902L12.9915 0.559994L12.9924 0.559605H12.9928L12.9962 0.55792L13.0001 0.556234L13.0018 0.555845L13.0035 0.554938L13.0068 0.553252L13.009 0.552344L13.0107 0.551826L13.0111 0.551437L13.0145 0.55014L13.0178 0.548843L13.0208 0.547936L13.0217 0.547547L13.0251 0.54625L13.029 0.544954L13.0307 0.544435L13.0329 0.543657L13.0368 0.54236L13.0407 0.541064H13.0411L13.044 0.539767L13.0479 0.538989L13.0509 0.538081L13.0518 0.537563L13.0557 0.536785L13.0596 0.535488H13.0613L13.0634 0.53458L13.0672 0.533673L13.0711 0.532765H13.0715L13.0749 0.531987L13.0792 0.531079L13.0822 0.530172H13.0831L13.087 0.529394L13.0908 0.528486H13.0925L13.0947 0.527968L13.099 0.52719L13.1029 0.526671H13.1033L13.1067 0.525893L13.1109 0.525374L13.1139 0.524985H13.1148L13.1191 0.524596L13.1208 0.524078L13.1247 0.523689H13.1273L13.1312 0.52317L13.1354 0.522781L13.1393 0.522392H13.1436L13.1466 0.521873H13.1479H13.1518L13.1561 0.521484H13.1574H13.1603H13.1642H13.1685H13.1728H13.1767H13.1797H13.181L13.1852 0.521873H13.1891H13.1904L13.1934 0.522392H13.1977L13.2016 0.522781L13.2059 0.52317L13.2097 0.523689H13.2123L13.2162 0.524078L13.2179 0.524596L13.2222 0.524985H13.2231L13.2261 0.525374L13.2304 0.525893L13.2337 0.526671H13.2341L13.238 0.52719L13.2423 0.527968L13.2445 0.528486H13.2462L13.2501 0.529394L13.254 0.530172H13.2547L13.2577 0.531079L13.262 0.531987L13.2654 0.532765H13.2658L13.2697 0.533673L13.2735 0.53458L13.2757 0.535488H13.2774L13.2813 0.536785L13.2852 0.537563L13.2861 0.538081L13.2891 0.538989L13.293 0.539767L13.296 0.541064H13.2969L13.3003 0.54236L13.3041 0.543657L13.3063 0.544435L13.308 0.544954L13.3119 0.54625L13.3153 0.547547L13.3161 0.547936L13.3191 0.548843L13.3224 0.55014L13.3258 0.551437L13.3262 0.551826L13.3284 0.552344L13.3301 0.553252L13.3334 0.554938L13.3351 0.555845L13.3368 0.556234L13.3407 0.55792L13.3441 0.559605H13.3446L13.3454 0.559994L13.348 0.560902L13.3513 0.562588L13.3539 0.564273H13.3547L13.3581 0.565959L13.3615 0.567645L13.3631 0.568552L13.3653 0.56933L13.3687 0.571535L13.3721 0.57322L13.3726 0.573609L13.3756 0.574906L13.379 0.57711L13.3816 0.578796H13.3821L13.3854 0.581L13.3888 0.583204L13.3901 0.584112L13.3922 0.58489L13.3956 0.587094L13.3985 0.589298L13.3989 0.589687L13.4019 0.591373L13.4049 0.593577L13.4075 0.595263L13.4083 0.595652L13.4079 0.595782Z" fill="url(#paint0_linear_0_1816)"/>
<defs>
<linearGradient id="paint0_linear_0_1816" x1="28.2798" y1="12.6878" x2="9.58471" y2="-3.68013" gradientUnits="userSpaceOnUse">
<stop stop-color="#C88C61"/>
<stop offset="1" stop-color="#EBBE9C"/>
</linearGradient>
</defs>
</svg>
