<svg width="170" height="55" viewBox="0 0 170 55" fill="none" xmlns="http://www.w3.org/2000/svg">
<g id="svg">
<path id="Shape" fill-rule="evenodd" clip-rule="evenodd" d="M69.8753 47.4868C69.5092 47.2796 69.0935 47.1763 68.6286 47.1763L68.6284 47.176C68.1571 47.176 67.7398 47.2858 67.3768 47.5056C67.0137 47.7251 66.7303 48.0293 66.5266 48.4179C66.5583 47.6281 66.7433 47.031 67.0807 46.6265C67.4184 46.222 67.947 45.9401 68.6667 45.7809L70.7877 45.2938L70.6731 44.6729L68.4183 45.1889C67.5456 45.3928 66.904 45.7812 66.4931 46.3545C66.0822 46.9276 65.8768 47.7527 65.8768 48.829C65.8768 49.8609 66.106 50.6698 66.5647 51.2557C67.0232 51.8416 67.67 52.1348 68.5043 52.1348C69.0009 52.1348 69.4407 52.0299 69.8227 51.8196C70.2049 51.6095 70.5027 51.3148 70.7161 50.9359C70.9294 50.5567 71.0361 50.1221 71.0361 49.6316C71.0361 49.1539 70.9343 48.729 70.7304 48.3562C70.5265 47.9837 70.2415 47.6938 69.8753 47.4868ZM69.4645 51.3276C69.1874 51.4898 68.8737 51.5712 68.5235 51.5712H68.523C68.1728 51.5712 67.8573 51.49 67.5772 51.3276C67.297 51.1651 67.0788 50.9374 66.9227 50.6445C66.7666 50.3515 66.6886 50.0204 66.6886 49.651C66.6886 49.2816 66.7666 48.9569 66.9227 48.6765C67.0788 48.3963 67.2954 48.1781 67.5725 48.022C67.8496 47.866 68.1666 47.7879 68.5232 47.7879C68.8801 47.7879 69.1969 47.866 69.4739 48.022C69.751 48.1781 69.9662 48.3963 70.1189 48.6765C70.2719 48.9567 70.3482 49.2816 70.3482 49.651C70.3482 50.0204 70.2701 50.3515 70.1141 50.6445C69.958 50.9374 69.7415 51.1651 69.4645 51.3276ZM75.8992 48.8292C76.5298 48.8356 77.0091 48.9758 77.3371 49.2496C77.6651 49.5236 77.8291 49.9184 77.8291 50.4342C77.8291 50.9692 77.6523 51.38 77.2987 51.6666C76.9451 51.9532 76.434 52.0933 75.7652 52.087L73.7397 52.0775V47.0522H74.4181V48.8101L75.899 48.8292H75.8992ZM76.7831 51.2892C76.5442 51.4836 76.1922 51.5775 75.7273 51.5712L74.4184 51.552V49.3162L75.7273 49.3354C76.1985 49.3417 76.5521 49.4341 76.7877 49.6124C77.0234 49.7908 77.1413 50.0647 77.1413 50.4342C77.1413 50.81 77.0218 51.095 76.7831 51.2892ZM84.689 47.0138C85.1603 47.0138 85.5855 47.122 85.9644 47.3387C86.3433 47.5554 86.6411 47.8578 86.8578 48.2464C87.0743 48.635 87.1827 49.0744 87.1827 49.5648C87.1827 50.0553 87.0745 50.4948 86.8578 50.8832C86.6411 51.2718 86.3435 51.576 85.9644 51.7955C85.5855 52.0153 85.1603 52.1251 84.689 52.1251C84.2431 52.1251 83.8388 52.0279 83.4755 51.8337C83.1125 51.6395 82.818 51.3703 82.5918 51.0263C82.3657 50.6824 82.2334 50.2874 82.1953 49.8415H81.0488V52.0773H80.3704V47.0519H81.0488V49.2207H82.2048C82.2557 48.7876 82.3941 48.4038 82.6203 48.0694C82.8464 47.735 83.1378 47.4756 83.4945 47.2909C83.8512 47.1062 84.2492 47.0138 84.6888 47.0138H84.689ZM85.6205 51.2846C85.3435 51.4501 85.0329 51.533 84.689 51.533C84.3451 51.533 84.0345 51.4504 83.7575 51.2846C83.4804 51.1191 83.2622 50.8865 83.103 50.5872C82.9436 50.2878 82.8641 49.9468 82.8641 49.5648C82.8641 49.1826 82.9439 48.8418 83.103 48.5425C83.2622 48.2429 83.4804 48.0121 83.7575 47.8497C84.0345 47.6874 84.3451 47.6061 84.689 47.6061C85.0329 47.6061 85.3435 47.6872 85.6205 47.8497C85.8976 48.0121 86.1158 48.2431 86.275 48.5425C86.4341 48.8418 86.5137 49.1826 86.5137 49.5648C86.5137 49.947 86.4341 50.2878 86.275 50.5872C86.1156 50.8865 85.8976 51.1191 85.6205 51.2846ZM93.2304 47.6539H91.3292V52.0775H90.6507V47.6539H88.7495V47.0522H93.2304V47.6539ZM96.1447 47.0522H95.4662V52.0775H96.0776L99.4215 48.084V52.0775H100.1V47.0522H99.498L96.1447 51.0457V47.0522ZM108.87 49.8419H107.724V52.0777H107.046V47.0524H107.724V49.2593H108.88L110.648 47.0524H111.383L109.406 49.4885L111.527 52.0777H110.724L108.87 49.8419ZM114.431 51.7958C114.82 52.0155 115.256 52.1253 115.74 52.1253C116.224 52.1253 116.66 52.0155 117.049 51.7958C117.437 51.5762 117.742 51.272 117.961 50.8834C118.181 50.495 118.291 50.0555 118.291 49.565C118.291 49.0746 118.181 48.6353 117.961 48.2467C117.742 47.858 117.438 47.5556 117.049 47.3389C116.661 47.1223 116.224 47.014 115.74 47.014C115.256 47.014 114.82 47.1225 114.431 47.3389C114.043 47.5556 113.737 47.858 113.514 48.2467C113.291 48.635 113.18 49.0746 113.18 49.565C113.18 50.0555 113.291 50.4948 113.514 50.8834C113.737 51.272 114.043 51.576 114.431 51.7958ZM115.74 51.5235C116.097 51.5235 116.417 51.4422 116.7 51.2797C116.984 51.1173 117.205 50.8865 117.364 50.5872C117.523 50.2878 117.603 49.947 117.603 49.5648C117.603 49.1826 117.523 48.8418 117.364 48.5425C117.205 48.2431 116.984 48.0121 116.7 47.8497C116.417 47.6872 116.097 47.6061 115.74 47.6061C115.383 47.6061 115.063 47.6874 114.78 47.8497C114.496 48.0121 114.274 48.2429 114.111 48.5425C113.949 48.8418 113.867 49.1826 113.867 49.5648C113.867 49.9468 113.949 50.2878 114.111 50.5872C114.274 50.8865 114.496 51.1175 114.78 51.2797C115.063 51.4422 115.383 51.5235 115.74 51.5235ZM125.218 50.7113C125.218 50.0489 124.877 49.638 124.195 49.4788H124.195C124.463 49.3834 124.671 49.2384 124.821 49.0442C124.971 48.8497 125.046 48.6159 125.046 48.3419C125.046 47.9279 124.883 47.6094 124.559 47.3865C124.234 47.1637 123.785 47.0522 123.211 47.0522H120.995V52.0775H123.278C123.921 52.0775 124.406 51.9595 124.73 51.7239C125.055 51.4883 125.218 51.1508 125.218 50.7113ZM121.654 49.2877H123.164C123.552 49.2877 123.85 49.2146 124.057 49.068C124.264 48.9214 124.368 48.708 124.368 48.4278C124.368 48.1475 124.264 47.9374 124.057 47.7972C123.85 47.657 123.552 47.5869 123.164 47.5869H121.654V49.2875V49.2877ZM124.224 51.3322C124.008 51.4724 123.683 51.5425 123.25 51.5425H123.249H121.654V49.7941H123.316C123.743 49.7941 124.055 49.8657 124.253 50.009C124.45 50.1523 124.549 50.3736 124.549 50.6729C124.549 50.9722 124.441 51.192 124.224 51.3322ZM130.129 52.1253C129.644 52.1253 129.208 52.0155 128.82 51.7958C128.431 51.576 128.125 51.272 127.902 50.8834C127.68 50.4948 127.568 50.0555 127.568 49.565C127.568 49.0746 127.68 48.635 127.902 48.2467C128.125 47.858 128.431 47.5556 128.82 47.3389C129.208 47.1225 129.644 47.014 130.129 47.014C130.613 47.014 131.049 47.1223 131.437 47.3389C131.826 47.5556 132.13 47.858 132.35 48.2467C132.57 48.6353 132.679 49.0746 132.679 49.565C132.679 50.0555 132.57 50.495 132.35 50.8834C132.13 51.272 131.826 51.5762 131.437 51.7958C131.049 52.0155 130.613 52.1253 130.129 52.1253ZM131.089 51.2797C130.805 51.4422 130.485 51.5235 130.129 51.5235C129.772 51.5235 129.452 51.4422 129.168 51.2797C128.885 51.1175 128.662 50.8865 128.5 50.5872C128.337 50.2878 128.256 49.9468 128.256 49.5648C128.256 49.1826 128.337 48.8418 128.5 48.5425C128.662 48.2429 128.885 48.0121 129.168 47.8497C129.452 47.6874 129.772 47.6061 130.129 47.6061C130.485 47.6061 130.805 47.6872 131.089 47.8497C131.372 48.0121 131.593 48.2431 131.753 48.5425C131.912 48.8418 131.991 49.1826 131.991 49.5648C131.991 49.947 131.912 50.2878 131.753 50.5872C131.593 50.8865 131.372 51.1173 131.089 51.2797ZM137.972 47.014C138.444 47.014 138.87 47.1207 139.253 47.3341C139.635 47.5475 139.934 47.8483 140.151 48.237C140.367 48.6256 140.476 49.0682 140.476 49.565C140.476 50.0683 140.367 50.5142 140.151 50.9026C139.934 51.2912 139.636 51.5921 139.258 51.8055C138.879 52.0188 138.45 52.1255 137.972 52.1255C137.565 52.1255 137.197 52.0411 136.869 51.8725C136.541 51.7036 136.272 51.457 136.062 51.1321V53.9315H135.383V47.0526H136.033V48.0461C136.237 47.715 136.506 47.4602 136.84 47.2818C137.175 47.1035 137.552 47.0142 137.972 47.0142L137.972 47.014ZM138.88 51.2797C138.593 51.4422 138.275 51.5235 137.925 51.5235C137.568 51.5235 137.248 51.4422 136.964 51.2797C136.681 51.1175 136.458 50.8865 136.296 50.5872C136.133 50.2878 136.052 49.9468 136.052 49.5648C136.052 49.1826 136.133 48.8436 136.296 48.5473C136.458 48.2511 136.681 48.0203 136.964 47.8545C137.248 47.689 137.568 47.6061 137.925 47.6061C138.275 47.6061 138.593 47.689 138.88 47.8545C139.167 48.0203 139.391 48.2511 139.554 48.5473C139.716 48.8436 139.797 49.1826 139.797 49.5648C139.797 49.947 139.716 50.2878 139.554 50.5872C139.391 50.8865 139.167 51.1173 138.88 51.2797ZM145.014 49.8419H143.867V52.0777H143.189V47.0524H143.867V49.2593H145.023L146.791 47.0524H147.526L145.549 49.4885L147.67 52.0777H146.867L145.014 49.8419ZM150.67 47.0522H149.991V52.0775H150.603L153.947 48.084V52.0775H154.625V47.0522H154.023L150.67 51.0457V47.0522ZM157.816 47.0522H158.495V49.2783H161.657V47.0522H162.335V52.0775H161.657V49.8609H158.495V52.0775H157.816V47.0522ZM166.195 47.6539H169.071V47.0522H165.517V52.0775H166.195V47.6539Z" fill="#34343F"/>
<path id="Shape_2" fill-rule="evenodd" clip-rule="evenodd" d="M1.4524 39.6004L19.1378 29.3899C19.1321 29.3101 19.1292 29.2294 19.1292 29.1483L19.1336 28.9828L1.45262 18.7745V39.6004H1.4524ZM23.1123 25.9867C23.711 26.1267 24.2467 26.4324 24.6683 26.8526C24.8782 27.0631 25.0587 27.3018 25.2055 27.5617L42.5984 17.5196L23.1123 6.2692V25.9867ZM25.6184 28.9945L25.6221 29.1483C25.6221 29.2253 25.6193 29.3022 25.6142 29.3778L43.3208 39.6006V18.7748L25.6186 28.9947L25.6184 28.9945ZM25.1727 30.7945C25.0334 31.0312 24.8634 31.2481 24.6712 31.4412C24.248 31.8636 23.711 32.1706 23.1123 32.3099V52.1059L42.5984 40.8555L25.1727 30.7945ZM21.6606 32.315C21.0531 32.1779 20.5086 31.8693 20.0828 31.4441C19.8919 31.2525 19.7244 31.0376 19.5848 30.804L2.17452 40.8555L21.6606 52.1059V32.315ZM19.5507 27.5518C19.695 27.2963 19.8736 27.0626 20.0797 26.8557C20.508 26.4282 21.0529 26.119 21.6604 25.9819V6.26942L2.1743 17.5199L19.5507 27.5518ZM23.6462 27.8776C23.3217 27.5538 22.8719 27.3534 22.3755 27.3534C21.879 27.3534 21.4289 27.5544 21.1047 27.8776C20.7809 28.202 20.5805 28.6519 20.5805 29.1483C20.5805 29.6447 20.7815 30.0949 21.1047 30.4191C21.4292 30.742 21.879 30.9433 22.3755 30.9433C22.8719 30.9433 23.322 30.7429 23.6462 30.4191C23.9691 30.0946 24.1702 29.6447 24.1702 29.1483C24.1702 28.6519 23.9698 28.2018 23.6462 27.8776ZM22.7934 4.41341L44.3647 16.8681C44.6056 16.9864 44.7718 17.2331 44.7718 17.5199V40.8555V40.867V40.8742L44.771 40.8786L44.7696 40.902V40.9115L44.7688 40.9137L44.7681 40.9254V40.9298L44.7666 40.9371L44.7659 40.9481L44.7652 40.9487L44.763 40.9661L44.7617 40.9719C44.7225 41.2077 44.5724 41.4052 44.3647 41.5075L22.7934 53.9622L22.7921 53.9628L22.7877 53.9657L22.7826 53.9692L22.7775 53.9721L22.7769 53.9727L22.7718 53.9765L22.7661 53.9794L22.7625 53.9816L22.7603 53.9829L22.7546 53.9866L22.7489 53.9895L22.748 53.9902L22.7467 53.9908L22.7438 53.993L22.7381 53.9959L22.733 53.9987L22.7321 53.9996L22.7264 54.0025L22.7206 54.0054L22.7169 54.0076L22.714 54.0082L22.7083 54.0111L22.7026 54.014L22.7012 54.0146L22.6968 54.0168L22.6911 54.0197L22.6854 54.0226H22.6845L22.6788 54.0254L22.6721 54.0276L22.6693 54.0292L22.6664 54.0305L22.6607 54.0327L22.6541 54.0356L22.6534 54.0362L22.6477 54.0378L22.6419 54.04L22.6369 54.0422L22.6356 54.0428L22.6298 54.045L22.6232 54.0472L22.6203 54.0479L22.6166 54.0494L22.61 54.0517L22.6043 54.0539H22.6027L22.5976 54.0554L22.591 54.0576L22.586 54.0589H22.5844L22.5778 54.0611L22.5712 54.0625L22.5683 54.0633L22.5646 54.0647L22.558 54.0662L22.5514 54.0677H22.5507L22.545 54.0693L22.5377 54.0706L22.5326 54.0722H22.5313L22.5247 54.0737L22.5181 54.075H22.5152L22.5115 54.0759L22.5042 54.0774L22.4976 54.0781H22.4969L22.4912 54.0796L22.4839 54.0803L22.4788 54.081H22.4773L22.47 54.0819L22.4634 54.0825L22.4605 54.0832H22.4561L22.4495 54.0841L22.4422 54.0847L22.4356 54.0856H22.4284L22.4233 54.0863H22.4211H22.4145L22.4072 54.0869H22.405H22.3999H22.3933H22.386H22.3788H22.3721H22.3671H22.3649L22.3576 54.0863H22.351H22.3488L22.3437 54.0856H22.3364L22.3298 54.0847L22.3225 54.0841L22.3159 54.0832H22.3115L22.3087 54.0825L22.302 54.0819L22.2948 54.081H22.2932L22.2882 54.0803L22.2809 54.0796L22.2752 54.0781H22.2745L22.2679 54.0774L22.2606 54.0759L22.2569 54.075H22.254L22.2474 54.0737L22.2408 54.0722H22.2392L22.2342 54.0706L22.2269 54.0693L22.2212 54.0677H22.2205L22.2139 54.0662L22.2073 54.0647L22.2037 54.0633L22.2009 54.0625L22.1943 54.0611L22.1876 54.0589H22.1861L22.181 54.0576L22.1744 54.0554L22.1694 54.0539H22.1687L22.1621 54.0517L22.1555 54.0494L22.1517 54.0479L22.1489 54.0472L22.1422 54.045L22.1365 54.0428L22.135 54.0422L22.1299 54.04L22.1242 54.0378L22.1184 54.0362L22.1178 54.0356L22.1112 54.0327L22.1054 54.0305L22.1026 54.0292L22.0997 54.0276L22.0931 54.0254L22.0874 54.0226H22.0867L22.081 54.0197L22.0752 54.0168L22.0708 54.0146L22.0693 54.014L22.0635 54.0111L22.0578 54.0082L22.0549 54.0076L22.0512 54.0054L22.0455 54.0025L22.0397 53.9996L22.0391 53.9987L22.034 53.9959L22.0283 53.993L22.0254 53.9908L22.0239 53.9902L22.0232 53.9895L22.0175 53.9866L22.0117 53.9829L22.0095 53.9816L22.0058 53.9794L22.0001 53.9765L21.995 53.9727L21.9943 53.9721L21.9893 53.9692L21.9842 53.9657L21.9798 53.9628L21.9785 53.9622L0.407131 41.5075C0.166203 41.3892 0 41.1425 0 40.8557V17.5201V17.5084V17.5011L0.000661285 17.4967L0.00220428 17.4733V17.4639L0.00286557 17.4617L0.00374728 17.45V17.4456L0.00529028 17.4383L0.00595156 17.4273L0.00661285 17.4266L0.00881713 17.4092L0.0103601 17.4035C0.0495964 17.1676 0.199708 16.9703 0.407351 16.8678L21.9787 4.41319L21.98 4.41253L21.9844 4.40967L21.9895 4.40592L21.9946 4.40305L21.9952 4.40239L22.0003 4.39865L22.006 4.3949L22.0098 4.39358L22.012 4.39203L22.0177 4.38829L22.0234 4.38454H22.0241L22.0285 4.38167L22.0342 4.37793L22.0393 4.37572L22.04 4.37506L22.0457 4.37219L22.0514 4.36845L22.0552 4.36712L22.058 4.36558L22.0638 4.36272L22.0695 4.35985H22.071L22.0754 4.35699L22.0812 4.35412L22.0856 4.35258L22.0871 4.35192H22.0878L22.0935 4.34905L22.1001 4.34618L22.103 4.34552L22.1059 4.34398L22.1116 4.34111L22.1153 4.33957L22.1182 4.33869L22.1189 4.33803L22.1246 4.33582L22.1303 4.33362L22.1354 4.33208L22.1369 4.33142L22.1427 4.32921L22.1493 4.32701L22.1522 4.32613L22.1559 4.3248L22.1625 4.3226L22.1691 4.32039H22.1698L22.1749 4.31819L22.1815 4.31687L22.1865 4.31532L22.1881 4.31444L22.1947 4.31312L22.2013 4.31092H22.2042L22.2077 4.30937L22.2143 4.30783L22.2209 4.30629H22.2216L22.2273 4.30496L22.2346 4.30342L22.2397 4.30188H22.2412L22.2478 4.30056L22.2544 4.29901H22.2573L22.261 4.29813L22.2683 4.29681L22.2749 4.29593H22.2756L22.2813 4.2946L22.2886 4.29372L22.2937 4.29306H22.2952L22.3025 4.2924L22.3054 4.29152L22.312 4.29086H22.3164L22.323 4.28997L22.3303 4.28931L22.3369 4.28865H22.3442L22.3492 4.28777H22.3514H22.358L22.3653 4.28711H22.3675H22.3726H22.3792H22.3865H22.3937H22.4004H22.4054H22.4076L22.4149 4.28777H22.4215H22.4237L22.4288 4.28865H22.4361L22.4427 4.28931L22.45 4.28997L22.4566 4.29086H22.461L22.4676 4.29152L22.4705 4.2924L22.4777 4.29306H22.4793L22.4843 4.29372L22.4916 4.2946L22.4973 4.29593H22.498L22.5046 4.29681L22.5119 4.29813L22.5156 4.29901H22.5185L22.5251 4.30056L22.5317 4.30188H22.5331L22.5381 4.30342L22.5454 4.30496L22.5511 4.30629H22.5518L22.5584 4.30783L22.565 4.30937L22.5688 4.31092H22.5716L22.5782 4.31312L22.5849 4.31444L22.5864 4.31532L22.5915 4.31687L22.5981 4.31819L22.6032 4.32039H22.6047L22.6104 4.3226L22.617 4.3248L22.6208 4.32613L22.6237 4.32701L22.6303 4.32921L22.636 4.33142L22.6373 4.33208L22.6424 4.33362L22.6481 4.33582L22.6539 4.33803L22.6545 4.33869L22.6583 4.33957L22.6611 4.34111L22.6669 4.34398L22.6697 4.34552L22.6726 4.34618L22.6792 4.34905L22.6849 4.35192H22.6858L22.6871 4.35258L22.6915 4.35412L22.6973 4.35699L22.7017 4.35985H22.703L22.7087 4.36272L22.7145 4.36558L22.7173 4.36712L22.7211 4.36845L22.7268 4.37219L22.7325 4.37506L22.7334 4.37572L22.7385 4.37793L22.7442 4.38167L22.7486 4.38454H22.7495L22.7552 4.38829L22.761 4.39203L22.7632 4.39358L22.7667 4.3949L22.7724 4.39865L22.7775 4.40239L22.7782 4.40305L22.7832 4.40592L22.7883 4.40967L22.7927 4.41253L22.794 4.41319L22.7934 4.41341Z" fill="url(#paint0_linear_0_70)"/>
<path id="Shape_3" fill-rule="evenodd" clip-rule="evenodd" d="M124.124 11.2853C126.721 11.2853 129.09 11.8694 131.228 13.0359C132.299 13.6194 133.257 14.3177 134.1 15.1291C134.945 15.942 135.675 16.8681 136.289 17.9045C136.903 18.9403 137.364 20.0477 137.672 21.225C137.98 22.3986 138.134 23.6374 138.134 24.9368C138.134 26.236 137.98 27.4764 137.672 28.6544C137.365 29.8336 136.903 30.9486 136.289 31.9938C135.676 33.0396 134.945 33.9731 134.1 34.7895C133.259 35.6038 132.3 36.305 131.228 36.8893C130.16 37.4721 129.031 37.9106 127.846 38.2015C126.66 38.4934 125.418 38.64 124.124 38.64C122.625 38.64 121.21 38.4497 119.88 38.0717C118.551 37.6943 117.308 37.1239 116.151 36.3638C114.997 35.6047 114.007 34.7113 113.186 33.6843C112.728 33.1116 112.322 32.4977 111.969 31.8422V38.4874H110.115V0H111.969V18.0535C112.324 17.4039 112.733 16.7942 113.194 16.2253C114.019 15.2084 115.016 14.3186 116.18 13.5594C117.344 12.8009 118.591 12.2311 119.914 11.8531C121.238 11.4751 122.643 11.2855 124.124 11.2855L124.124 11.2853ZM96.7788 4.80622C96.9908 4.89174 97.2236 4.93605 97.4705 4.93605V4.93649C97.702 4.93649 97.9241 4.89152 98.1331 4.80512C98.3341 4.72157 98.5279 4.59372 98.7086 4.42466C98.8901 4.25471 99.0278 4.07109 99.1193 3.87667C99.2159 3.67123 99.2652 3.45499 99.2652 3.23082C99.2652 2.99121 99.2167 2.76549 99.1208 2.55498C99.0258 2.34954 98.885 2.16461 98.6992 2.00193C98.3379 1.68473 97.927 1.52514 97.4705 1.52514C97.2267 1.52514 96.9966 1.5657 96.7847 1.6455C96.5714 1.72661 96.3783 1.84873 96.2048 2.01119C95.8521 2.34139 95.6749 2.74852 95.6749 3.2306C95.6749 3.45323 95.7207 3.6666 95.8113 3.86918C95.8991 4.0658 96.0282 4.25096 96.196 4.41716C96.3686 4.58843 96.5632 4.71915 96.7788 4.80622ZM90.7025 11.9893L77.6752 38.4872H76.1154C72.5143 31.1371 68.8992 23.7923 65.2843 16.4481L65.2693 16.4177L65.2639 16.4066C64.4486 14.7503 63.6334 13.0939 62.8183 11.4376H64.9201L76.8957 36.0588L88.8714 11.4376H90.9732L90.7025 11.9891V11.9893ZM96.9276 11.4378H96.9278H98.3974V38.4874H96.5438V11.4378H96.9276ZM127.398 36.5241C126.365 36.778 125.273 36.9059 124.124 36.9059H124.124C122.976 36.9059 121.884 36.778 120.85 36.5241C119.816 36.2699 118.832 35.8868 117.903 35.3781C116.974 34.8693 116.145 34.2603 115.42 33.5527C114.697 32.8458 114.071 32.0351 113.544 31.1256C113.02 30.2176 112.626 29.2464 112.364 28.2166C112.101 27.1865 111.969 26.0921 111.969 24.9366C111.969 23.7809 112.101 22.6865 112.364 21.6566C112.626 20.6261 113.021 19.6549 113.545 18.747C114.068 17.8399 114.695 17.0327 115.42 16.328C116.145 15.6255 116.972 15.0222 117.9 14.5229C118.832 14.0212 119.816 13.6438 120.849 13.3934C121.882 13.1437 122.975 13.0183 124.124 13.0183C125.274 13.0183 126.367 13.1437 127.4 13.3934C128.433 13.6441 129.418 14.0214 130.349 14.5229C131.277 15.0224 132.104 15.6255 132.828 16.328C133.555 17.0327 134.181 17.8397 134.704 18.747C135.228 19.6549 135.623 20.6259 135.886 21.6566C136.148 22.6867 136.28 23.7818 136.28 24.9366C136.28 26.0914 136.148 27.1867 135.886 28.2166C135.623 29.2473 135.228 30.2192 134.704 31.1271C134.18 32.0351 133.554 32.8442 132.827 33.5534C132.102 34.2618 131.274 34.8715 130.346 35.3781C129.415 35.8875 128.431 36.2708 127.398 36.5241ZM169.616 25.3208H145.034C145.091 27.4691 145.633 29.4034 146.657 31.1205C147.2 32.0307 147.847 32.8429 148.594 33.5505C149.34 34.2568 150.193 34.8665 151.149 35.3752C152.103 35.8846 153.12 36.2673 154.198 36.5219C155.278 36.7774 156.42 36.9059 157.62 36.9059C158.556 36.9059 159.462 36.821 160.337 36.6526C161.213 36.4842 162.061 36.23 162.876 35.8941C163.686 35.5595 164.427 35.1473 165.096 34.6601C165.762 34.1761 166.356 33.6151 166.878 32.98L167.136 32.6657L168.466 33.9111L168.22 34.1882C167.584 34.9068 166.873 35.5419 166.091 36.0912C165.309 36.6398 164.452 37.1065 163.519 37.4913C162.59 37.8731 161.632 38.1621 160.65 38.3528C159.667 38.543 158.654 38.6395 157.619 38.6395C154.878 38.6395 152.42 38.0561 150.246 36.8904C149.157 36.307 148.182 35.6051 147.325 34.7906C146.468 33.9748 145.726 33.0422 145.103 31.9963C144.48 30.9497 144.009 29.8341 143.697 28.6555C143.386 27.4775 143.229 26.2371 143.229 24.9364C143.229 23.6387 143.374 22.4012 143.662 21.229C143.95 20.0568 144.384 18.9507 144.961 17.9135C145.539 16.8758 146.228 15.948 147.025 15.1366C147.821 14.3252 148.73 13.6247 149.747 13.0397C151.78 11.8705 154.061 11.2848 156.587 11.2848C157.829 11.2848 159.02 11.4285 160.155 11.7166C161.292 12.0041 162.374 12.4359 163.398 13.0114C164.42 13.5857 165.338 14.2736 166.146 15.0683C166.953 15.8644 167.652 16.7689 168.239 17.7797C168.826 18.7931 169.268 19.878 169.56 21.0306C169.853 22.1795 170 23.3982 170 24.682V25.3199H169.616L169.616 25.3208ZM153.573 13.3743C154.524 13.1377 155.531 13.0187 156.588 13.0187L156.587 13.0181C157.645 13.0181 158.652 13.1371 159.604 13.3745C160.556 13.6119 161.463 13.9688 162.318 14.4436C163.175 14.9184 163.951 15.4844 164.642 16.1398C165.335 16.796 165.945 17.5441 166.47 18.3795C166.994 19.2136 167.401 20.0998 167.689 21.0324C167.94 21.8444 168.103 22.6973 168.175 23.5871H145.054C145.126 22.696 145.286 21.8431 145.533 21.0317C145.817 20.0984 146.219 19.2123 146.734 18.3769C147.249 17.543 147.852 16.7955 148.539 16.1409C149.227 15.4855 150 14.9188 150.857 14.444C151.712 13.9701 152.619 13.613 153.573 13.3743Z" fill="#34343F"/>
</g>
<defs>
<linearGradient id="paint0_linear_0_70" x1="48.0757" y1="24.9698" x2="16.294" y2="-2.85564" gradientUnits="userSpaceOnUse">
<stop stop-color="#C88C61"/>
<stop offset="1" stop-color="#EBBE9C"/>
</linearGradient>
</defs>
</svg>
