<svg width="103" height="103" viewBox="0 0 103 103" fill="none" xmlns="http://www.w3.org/2000/svg">
<path fill-rule="evenodd" clip-rule="evenodd" d="M43.1634 85.2153L31.195 88.2078L27.3905 76.4722L15.5293 73.0796L18.1023 61.0141L9.52652 52.1454L17.7876 42.9828L14.7951 31.0144L26.5306 27.2099L29.9233 15.3487L41.9888 17.9217L50.8575 9.34589L60.0201 17.6069L71.9885 14.6144L75.793 26.35L87.6542 29.7426L85.0812 41.8082L93.657 50.6769L85.396 59.8395L88.3885 71.8079L76.6529 75.6124L73.2603 87.4736L61.1947 84.9006L52.326 93.4764L43.1634 85.2153Z" fill="url(#paint0_linear_11551_44)"/>
<path fill-rule="evenodd" clip-rule="evenodd" d="M51 35C54.6401 35 57.6313 37.7785 57.9684 41.3303C60.2479 42.1216 61.9028 44.2489 61.9959 46.7751L62 47V49.5011C66.7278 49.0074 69.1583 53.5465 67.458 56.9472C66.7994 58.2644 65.3975 59.0063 63.9901 59.1479C63.8849 60.9882 62.9503 62.6064 61.5543 63.6344C61.8523 64.1439 62 64.775 62 65.5L62.0043 65.5944C62.0447 66.0248 62.3766 66.3134 63.2425 66.5299C63.7783 66.6638 64.1041 67.2067 63.9701 67.7425C63.8362 68.2783 63.2932 68.6041 62.7574 68.4701C61.0186 68.0354 60 67.0168 60 65.5L59.9962 65.331C59.9779 64.9453 59.894 64.6986 59.7493 64.541C59.4426 64.6343 59.1254 64.7038 58.8 64.7471V64.8H58H45H44.8V64.7967C44.0196 64.7712 43.277 64.5966 42.5995 64.3005C42.583 64.3129 42.566 64.3248 42.5485 64.3363L42.4472 64.3944C42.1812 64.5274 42.0292 64.7951 42.0038 65.331L42 65.5C42 67.0168 40.9814 68.0354 39.2425 68.4701C38.7067 68.6041 38.1638 68.2783 38.0299 67.7425C37.8959 67.2067 38.2217 66.6638 38.7575 66.5299C39.6234 66.3134 39.9553 66.0248 39.9957 65.5944L40 65.5C40 64.5073 40.2769 63.6907 40.8374 63.1212C39.7837 62.1059 39.1004 60.7089 39.0102 59.1527C37.3302 59.3093 35.4114 58.5589 34.6056 56.9472C32.9128 53.5618 35.314 49.0481 40 49.4947V47L40.0041 46.7751C40.0972 44.2489 41.7521 42.1216 44.0316 41.3303C44.3687 37.7785 47.3599 35 51 35ZM61.9983 58.9189C61.5623 58.7584 61.1708 58.5215 60.8564 58.2071C59.0352 56.3859 59.8817 53 63.0635 53C63.6158 53 64.0635 53.4477 64.0635 54C64.0635 54.5523 63.6158 55 63.0635 55L62.9191 55.0057C61.8488 55.0921 61.6201 56.1424 62.2706 56.7929C62.972 57.4943 65.0813 57.2284 65.6691 56.0528C66.7194 53.9521 65.2151 51.156 62.174 51.4939C59.6613 51.7731 58.3466 53.2192 58.0586 56.0995C58.0497 56.1877 58.0297 56.2721 58 56.3514V57V59V61H56H46H44V59V57V56.051C43.7021 53.203 42.3881 51.7715 39.8896 51.4939C36.8484 51.156 35.3441 53.9521 36.3944 56.0528C36.9822 57.2284 39.0915 57.4943 39.7929 56.7929C40.4434 56.1424 40.2147 55.0921 39.1444 55.0057L39 55C38.4477 55 38 54.5523 38 54C38 53.4477 38.4477 53 39 53C42.1818 53 43.0283 56.3859 41.2071 58.2071C41.1413 58.2729 41.0722 58.3352 41 58.3942V58.8C41 60.9422 42.684 62.6911 44.8004 62.7951L45 62.8H58L58.1996 62.7951C60.2767 62.693 61.9373 61.0065 61.9983 58.9189ZM56.1948 55C56.6562 52.4831 57.9453 50.7745 60 49.9713V47C60 44.8578 58.316 43.1089 56.1996 43.0049L56 43V42C56 39.2386 53.7614 37 51 37C48.3112 37 46.1182 39.1223 46.0046 41.7831L46 42V43L45.8004 43.0049C43.684 43.1089 42 44.8578 42 47V49.9468C44.0916 50.7395 45.4026 52.4573 45.8688 55H56.1948ZM56 59V57H46V59H56ZM51 49C51.5523 49 52 49.4477 52 50C52 50.5523 51.5523 51 51 51C50.4477 51 50 50.5523 50 50C50 49.4477 50.4477 49 51 49ZM52 42C52 41.4477 51.5523 41 51 41C50.4477 41 50 41.4477 50 42C50 42.5523 50.4477 43 51 43C51.5523 43 52 42.5523 52 42ZM47 45C47.5523 45 48 45.4477 48 46C48 46.5523 47.5523 47 47 47C46.4477 47 46 46.5523 46 46C46 45.4477 46.4477 45 47 45ZM56 46C56 45.4477 55.5523 45 55 45C54.4477 45 54 45.4477 54 46C54 46.5523 54.4477 47 55 47C55.5523 47 56 46.5523 56 46Z" fill="url(#paint1_linear_11551_44)"/>
<defs>
<linearGradient id="paint0_linear_11551_44" x1="6.6567" y1="34.0486" x2="38.8904" y2="93.8202" gradientUnits="userSpaceOnUse">
<stop stop-color="#F8E6E2"/>
<stop offset="1" stop-color="#E4BEB5"/>
</linearGradient>
<linearGradient id="paint1_linear_11551_44" x1="25.221" y1="44.129" x2="43.3503" y2="77.8264" gradientUnits="userSpaceOnUse">
<stop stop-color="#AC6C44"/>
<stop offset="1" stop-color="#301103"/>
</linearGradient>
</defs>
</svg>
