<svg width="103" height="103" viewBox="0 0 103 103" fill="none" xmlns="http://www.w3.org/2000/svg">
<path fill-rule="evenodd" clip-rule="evenodd" d="M43.1706 85.1865L31.195 88.2078L27.4111 76.4509L15.5293 73.0796L18.1309 61.0059L9.52652 52.1454L17.8164 42.99L14.7951 31.0144L26.552 27.2305L29.9233 15.3487L41.997 17.9502L50.8575 9.34589L60.0129 17.6358L71.9885 14.6144L75.7724 26.3714L87.6542 29.7426L85.0527 41.8164L93.657 50.6769L85.3671 59.8323L88.3885 71.8079L76.6315 75.5918L73.2603 87.4736L61.1865 84.872L52.326 93.4764L43.1706 85.1865Z" fill="url(#paint0_linear_11551_45)"/>
<path fill-rule="evenodd" clip-rule="evenodd" d="M68.0001 49.25C68.6473 49.25 69.1796 48.7581 69.2436 48.1278L69.2501 48V43.5C69.2501 40.1249 66.5748 37.3747 63.2292 37.2541L63.0001 37.25H59.5001C58.8097 37.25 58.2501 37.8096 58.2501 38.5C58.2501 39.1472 58.7419 39.6795 59.3723 39.7435L59.5001 39.75H63.0001C65.0043 39.75 66.6413 41.3224 66.7449 43.3008L66.7501 43.5V48C66.7501 48.6904 67.3097 49.25 68.0001 49.25ZM57.4979 50.9976C57.5162 51.5517 58.0971 52.1688 58.6645 52.5347C59.1953 52.877 60.9325 54.1481 60.9981 56.135C61.0441 57.5268 60.2822 58.8161 58.7338 59.9668C58.5064 60.1357 58.2414 60.2172 57.9786 60.2172C57.5895 60.2172 57.2052 60.0384 56.9559 59.7001C56.5383 59.1335 56.6573 58.3343 57.2216 57.9149C57.6925 57.565 58.4792 56.8795 58.4574 56.2196C58.439 55.6656 57.8583 55.0486 57.2909 54.6827C56.76 54.3404 55.0227 53.0692 54.9572 51.0823C54.9112 49.6904 55.6731 48.4011 57.2216 47.2505C57.786 46.8312 58.5819 46.9505 58.9994 47.5172C59.417 48.0838 59.2981 48.8831 58.7338 49.3024C58.2629 49.6523 57.4761 50.3377 57.4979 50.9976ZM52.1868 52.5347C51.6194 52.1688 51.0387 51.5517 51.0203 50.9976C50.9985 50.3377 51.7852 49.6523 52.2561 49.3024C52.8204 48.8831 52.9394 48.0838 52.5218 47.5172C52.1041 46.9507 51.3083 46.8313 50.7439 47.2505C49.1954 48.4011 48.4336 49.6904 48.4796 51.0823C48.5451 53.0692 50.2824 54.3404 50.8132 54.6827C51.3806 55.0486 51.9614 55.6656 51.9797 56.2196C52.0016 56.8795 51.2148 57.565 50.7439 57.9149C50.1796 58.3343 50.0607 59.1335 50.4783 59.7001C50.7276 60.0384 51.1119 60.2172 51.501 60.2172C51.7638 60.2172 52.0288 60.1357 52.2561 59.9668C53.8046 58.8161 54.5665 57.5268 54.5204 56.135C54.4549 54.1481 52.7177 52.877 52.1868 52.5347ZM45.7092 52.5347C45.1419 52.1688 44.5611 51.5517 44.5428 50.9977C44.5209 50.3378 45.3077 49.6524 45.7786 49.3025C46.3429 48.8831 46.4618 48.0839 46.0442 47.5173C45.6266 46.9508 44.8308 46.8314 44.2664 47.2506C42.7179 48.4012 41.956 49.6905 42.002 51.0823C42.0676 53.0693 43.8048 54.3405 44.3357 54.6828C44.9031 55.0487 45.4839 55.6658 45.5022 56.2199C45.524 56.8796 44.7373 57.5652 44.2664 57.9151C43.7021 58.3344 43.5831 59.1337 44.0007 59.7003C44.25 60.0386 44.6343 60.2174 45.0234 60.2174C45.2862 60.2174 45.5512 60.1359 45.7786 59.967C47.327 58.8163 48.0889 57.5271 48.043 56.1352C47.9774 54.1481 46.2401 52.877 45.7092 52.5347ZM68.0001 58.25C68.6473 58.25 69.1796 58.7419 69.2436 59.3722L69.2501 59.5V64C69.2501 67.3751 66.5748 70.1253 63.2292 70.2459L63.0001 70.25H59.5001C58.8097 70.25 58.2501 69.6904 58.2501 69C58.2501 68.3528 58.7419 67.8205 59.3723 67.7565L59.5001 67.75H63.0001C65.0043 67.75 66.6413 66.1776 66.7449 64.1992L66.7501 64V59.5C66.7501 58.8096 67.3097 58.25 68.0001 58.25ZM33.2565 59.3722C33.3205 58.7419 33.8529 58.25 34.5001 58.25C35.1904 58.25 35.7501 58.8096 35.7501 59.5V64L35.7553 64.1992C35.8588 66.1776 37.4958 67.75 39.5001 67.75H43.0001L43.1279 67.7565C43.7582 67.8205 44.2501 68.3528 44.2501 69C44.2501 69.6904 43.6904 70.25 43.0001 70.25H39.5001L39.2709 70.2459C35.9253 70.1253 33.2501 67.3751 33.2501 64V59.5L33.2565 59.3722ZM33.2565 48.1278C33.3205 48.7581 33.8529 49.25 34.5001 49.25C35.1904 49.25 35.7501 48.6904 35.7501 48V43.5L35.7553 43.3008C35.8588 41.3224 37.4958 39.75 39.5001 39.75H43.0001L43.1279 39.7435C43.7582 39.6795 44.2501 39.1472 44.2501 38.5C44.2501 37.8096 43.6904 37.25 43.0001 37.25H39.5001L39.2709 37.2541C35.9253 37.3747 33.2501 40.1249 33.2501 43.5V48L33.2565 48.1278Z" fill="url(#paint1_linear_11551_45)"/>
<defs>
<linearGradient id="paint0_linear_11551_45" x1="6.6567" y1="34.0486" x2="38.8904" y2="93.8202" gradientUnits="userSpaceOnUse">
<stop stop-color="#F8E6E2"/>
<stop offset="1" stop-color="#E4BEB5"/>
</linearGradient>
<linearGradient id="paint1_linear_11551_45" x1="23.8699" y1="46.2427" x2="40.9825" y2="80.4956" gradientUnits="userSpaceOnUse">
<stop stop-color="#AC6C44"/>
<stop offset="1" stop-color="#301103"/>
</linearGradient>
</defs>
</svg>
