<svg width="103" height="103" viewBox="0 0 103 103" fill="none" xmlns="http://www.w3.org/2000/svg">
<path fill-rule="evenodd" clip-rule="evenodd" d="M43.1706 85.1865L31.195 88.2078L27.4111 76.4509L15.5293 73.0796L18.1309 61.0059L9.52652 52.1454L17.8164 42.99L14.7951 31.0144L26.552 27.2305L29.9233 15.3487L41.997 17.9502L50.8575 9.34589L60.0129 17.6358L71.9885 14.6144L75.7724 26.3714L87.6542 29.7426L85.0527 41.8164L93.657 50.6769L85.3671 59.8323L88.3885 71.8079L76.6315 75.5918L73.2603 87.4736L61.1865 84.872L52.326 93.4764L43.1706 85.1865Z" fill="url(#paint0_linear_11551_46)"/>
<path fill-rule="evenodd" clip-rule="evenodd" d="M67.9677 50.4494C66.985 43.5862 61.5783 38.0385 54.5489 37.0322C52.8237 36.7855 51.2183 37.9839 50.9718 39.7099L49.8186 47.7815C49.322 48.2779 38.1047 59.494 37.5299 60.0688C35.49 62.1084 35.49 65.4271 37.5299 67.4666C39.5744 69.511 42.8837 69.5112 44.9285 67.4666C45.5034 66.8918 56.7208 55.6756 57.2173 55.1793L65.2898 54.0261C67.0146 53.7798 68.2149 52.1753 67.9677 50.4494ZM43.4488 65.9871C42.8558 66.5799 42.0676 66.9063 41.2292 66.9063C40.3907 66.9063 39.6025 66.5798 39.0095 65.9871C37.7857 64.7633 37.7857 62.7721 39.0095 61.5484L45.6683 54.8904L50.1074 59.3291L43.4488 65.9871ZM51.5873 57.8495L47.1482 53.4107L50.8051 49.7542L55.2443 54.1929L51.5873 57.8495ZM64.9938 51.9548L57.0939 53.0832L51.9149 47.9047L53.0435 40.0058C53.1271 39.4207 53.6772 39.0211 54.2524 39.1035C54.8089 39.1831 55.3551 39.2968 55.8887 39.442L55.0493 42.183C54.8801 42.7355 55.1908 43.3205 55.7434 43.4897C56.2963 43.6589 56.8811 43.3478 57.0502 42.7956L57.8613 40.1469C59.0896 40.6952 60.2245 41.419 61.2332 42.2864L59.0488 44.4706C58.6402 44.8792 58.6402 45.5416 59.0488 45.9502C59.4573 46.3587 60.1199 46.3588 60.5285 45.9502L62.713 43.7659C63.5839 44.7787 64.3102 45.9185 64.8593 47.1523L62.2106 47.9575C61.6577 48.1256 61.3458 48.71 61.5139 49.2628C61.6819 49.8155 62.2663 50.1276 62.8193 49.9595L65.5618 49.1258C65.7049 49.6543 65.8173 50.195 65.8962 50.746C65.9793 51.3268 65.5734 51.872 64.9938 51.9548Z" fill="url(#paint1_linear_11551_46)"/>
<defs>
<linearGradient id="paint0_linear_11551_46" x1="6.6567" y1="34.0486" x2="38.8904" y2="93.8202" gradientUnits="userSpaceOnUse">
<stop stop-color="#F8E6E2"/>
<stop offset="1" stop-color="#E4BEB5"/>
</linearGradient>
<linearGradient id="paint1_linear_11551_46" x1="27.6621" y1="45.7202" x2="45.1025" y2="77.7202" gradientUnits="userSpaceOnUse">
<stop stop-color="#AC6C44"/>
<stop offset="1" stop-color="#301103"/>
</linearGradient>
</defs>
</svg>
