<svg width="105" height="105" viewBox="0 0 105 105" fill="none" xmlns="http://www.w3.org/2000/svg">
<circle cx="52.5" cy="52.5" r="52.5" fill="url(#paint0_linear_0_659)"/>
<path fill-rule="evenodd" clip-rule="evenodd" d="M52.8691 30.6414L52.3509 29.9906C51.59 29.0356 51.5889 27.7005 52.3482 26.7441C52.6902 26.3131 52.6181 25.6866 52.1872 25.3446C51.7562 25.0025 51.1297 25.0747 50.7877 25.5056C49.4487 27.1926 49.4507 29.5473 50.7926 31.2319L51.3108 31.8826C52.305 33.1307 52.3065 34.8754 51.3144 36.1254L50.7833 36.7945C50.4412 37.2254 50.5134 37.852 50.9443 38.194C51.1275 38.3393 51.3459 38.4099 51.5628 38.4099C51.8563 38.4099 52.1471 38.2808 52.3438 38.033L52.8749 37.3638C54.4467 35.3834 54.4444 32.619 52.8691 30.6414ZM72.8359 45.698H81.0039C81.554 45.698 82 46.144 82 46.6941V53.8162C82 59.1072 77.6954 63.4118 72.4043 63.4118H69.5926C68.3485 65.3726 66.7863 67.1124 64.9805 68.5584H74.2304C74.7805 68.5584 75.2265 69.0043 75.2265 69.5544C75.2265 73.1795 72.2774 76.1287 68.6523 76.1287H37.5742C33.9491 76.1287 31 73.1795 31 69.5544C31 69.0043 31.4461 68.5584 31.9961 68.5584H38.8554C36.8934 66.9873 35.218 65.07 33.9267 62.8988C32.012 59.6796 31 55.9877 31 52.2224V43.5897C31 43.0395 31.4461 42.5936 31.9961 42.5936H39.666C40.2161 42.5936 40.6621 43.0395 40.6621 43.5897C40.6621 44.1398 40.2161 44.5858 39.666 44.5858H32.9922V52.2224C32.9922 58.9308 36.5738 65.1659 42.3573 68.5583H61.4787C67.2621 65.1658 70.8437 58.9308 70.8437 52.2223V44.5857H50.3242C49.7742 44.5857 49.3281 44.1397 49.3281 43.5896C49.3281 43.0394 49.7742 42.5935 50.3242 42.5935H71.8398C72.3899 42.5935 72.8359 43.0394 72.8359 43.5896V45.698ZM68.6523 74.1365C70.8368 74.1365 72.6693 72.5997 73.1253 70.5505H61.7455H42.0904H33.1013C33.5574 72.5997 35.3897 74.1365 37.5742 74.1365H68.6523ZM72.8359 52.2224V51.6746H76.0234V53.8162C76.0234 55.8117 74.3999 57.4353 72.4043 57.4353H72.1781C72.6129 55.7413 72.8359 53.99 72.8359 52.2224ZM72.4043 61.4197C76.5969 61.4197 80.0078 58.0087 80.0078 53.8162V47.6902H72.8359V49.6824H77.0195C77.5695 49.6824 78.0156 50.1283 78.0156 50.6785V53.8162C78.0156 56.9102 75.4985 59.4275 72.4043 59.4275H71.5593C71.3111 60.1051 71.027 60.7701 70.709 61.4197H72.4043ZM57.8721 32.2303L58.3904 32.881C59.9656 34.8588 59.9679 37.6232 58.3959 39.6035L57.865 40.2726C57.6684 40.5203 57.3775 40.6495 57.0841 40.6495C56.8671 40.6495 56.6487 40.579 56.4655 40.4337C56.0346 40.0917 55.9625 39.4652 56.3045 39.0343L56.8356 38.3652C57.8277 37.1153 57.8262 35.3705 56.8321 34.1223L56.3138 33.4716C54.972 31.7869 54.97 29.4322 56.3089 27.7452C56.651 27.3143 57.2774 27.2421 57.7084 27.5843C58.1394 27.9262 58.2115 28.5528 57.8694 28.9837C57.1102 29.9401 57.1113 31.2752 57.8721 32.2303ZM47.3479 32.8811L46.8296 32.2304C46.0688 31.2754 46.0677 29.9402 46.8268 28.9838C47.1689 28.5529 47.0968 27.9263 46.6659 27.5843C46.2348 27.2422 45.6084 27.3145 45.2663 27.7452C43.9275 29.4322 43.9295 31.787 45.2713 33.4716L45.7896 34.1223C46.7837 35.3705 46.7852 37.1153 45.7932 38.3651L45.2621 39.0342C44.92 39.4651 44.992 40.0916 45.4229 40.4337C45.6061 40.579 45.8245 40.6496 46.0415 40.6496C46.335 40.6496 46.6257 40.5205 46.8223 40.2728L47.3536 39.6036C48.9254 37.6233 48.9231 34.8589 47.3479 32.8811ZM45.265 42.5932C45.527 42.5932 45.784 42.6998 45.9693 42.885C46.1555 43.0703 46.2611 43.3273 46.2611 43.5893C46.2611 43.8523 46.1555 44.1083 45.9693 44.2945C45.784 44.4798 45.527 44.5854 45.265 44.5854C45.0031 44.5854 44.7461 44.4798 44.5608 44.2945C44.3755 44.1083 44.269 43.8513 44.269 43.5893C44.269 43.3273 44.3756 43.0713 44.5608 42.885C44.7461 42.6998 45.0031 42.5932 45.265 42.5932ZM67.0586 51.2263C66.5085 51.2263 66.0625 51.6723 66.0625 52.2224C66.0625 55.9198 64.5628 59.5535 61.9478 62.1916C61.5605 62.5823 61.5634 63.213 61.9541 63.6003C62.1483 63.7928 62.4018 63.889 62.6553 63.889C62.9117 63.8889 63.1681 63.7905 63.3629 63.5939C66.3446 60.5857 68.0547 56.441 68.0547 52.2224C68.0547 51.6723 67.6086 51.2263 67.0586 51.2263ZM58.9167 64.517C59.3958 64.2468 60.0033 64.416 60.2737 64.8952C60.5439 65.3743 60.3747 65.9819 59.8955 66.2522L59.8728 66.265C59.7182 66.3522 59.55 66.3937 59.3843 66.3937C59.0364 66.3937 58.6989 66.2114 58.5158 65.8868C58.2455 65.4077 58.4148 64.8002 58.894 64.5299L58.9167 64.517Z" fill="url(#paint1_linear_0_659)"/>
<defs>
<linearGradient id="paint0_linear_0_659" x1="-10.5111" y1="47.4216" x2="51.3198" y2="116.786" gradientUnits="userSpaceOnUse">
<stop stop-color="#F0D9D4"/>
<stop offset="1" stop-color="#E9C9C2"/>
</linearGradient>
<linearGradient id="paint1_linear_0_659" x1="17.7115" y1="39.0265" x2="45.5071" y2="90.0264" gradientUnits="userSpaceOnUse">
<stop stop-color="#AC6C44"/>
<stop offset="1" stop-color="#301103"/>
</linearGradient>
</defs>
</svg>
