<svg width="105" height="105" viewBox="0 0 105 105" fill="none" xmlns="http://www.w3.org/2000/svg">
<circle cx="52.5" cy="52.5" r="52.5" fill="url(#paint0_linear_0_642)"/>
<path fill-rule="evenodd" clip-rule="evenodd" d="M77.3665 29.7478L77.3703 29.7513L77.3736 29.7543C78.1438 30.5244 78.2124 31.7463 77.5329 32.5967C72.5254 38.8637 67.2992 45.1717 61.9082 51.4606L75.8059 65.3573C76.4698 66.0213 76.8356 66.9042 76.8356 67.8433C76.8356 68.7823 76.4698 69.6652 75.8058 70.3292L74.315 71.82L74.3144 71.8208L74.3136 71.8214L69.2127 76.9225C69.0753 77.0597 68.8953 77.1283 68.7154 77.1283C68.5355 77.1283 68.3555 77.0597 68.2182 76.9225C67.9436 76.6479 67.9436 76.2028 68.2182 75.9281L72.8226 71.3236L71.8165 70.3175L67.212 74.9219C67.0747 75.0592 66.8947 75.1278 66.7148 75.1278C66.5349 75.1278 66.3549 75.0592 66.2175 74.9219C65.9429 74.6473 65.9429 74.2022 66.2175 73.9275L70.822 69.3231L69.8158 68.317L65.2114 72.9214C65.0741 73.0587 64.8941 73.1273 64.7142 73.1273C64.5343 73.1273 64.3543 73.0587 64.2169 72.9214C63.9423 72.6468 63.9423 72.2017 64.2169 71.927L68.8214 67.3226L67.8152 66.3164L63.2108 70.9209C63.0734 71.0581 62.8934 71.1268 62.7135 71.1268C62.5336 71.1268 62.3536 71.0581 62.2163 70.9209C61.9417 70.6463 61.9417 70.2012 62.2163 69.9265L66.8207 65.322L65.8145 64.3158L61.2101 68.9203C61.0727 69.0576 60.8927 69.1262 60.7128 69.1262C60.5329 69.1262 60.3529 69.0576 60.2156 68.9203C59.941 68.6458 59.941 68.2006 60.2156 67.9259L64.82 63.3214L63.8139 62.3153L59.2094 66.9197C59.0721 67.057 58.8921 67.1256 58.7122 67.1256C58.5323 67.1256 58.3523 67.057 58.2149 66.9197C57.9403 66.6451 57.9403 66.2 58.2149 65.9253L62.8194 61.3209L61.8133 60.3148L57.2088 64.9192C57.0715 65.0564 56.8915 65.1251 56.7116 65.1251C56.5317 65.1251 56.3517 65.0564 56.2143 64.9192C55.9397 64.6446 55.9397 64.1995 56.2143 63.9248L60.8188 59.3203L59.8125 58.3141L55.2081 62.9186C55.0708 63.0558 54.8908 63.1244 54.7108 63.1244C54.5309 63.1244 54.3509 63.0558 54.2136 62.9186C53.939 62.644 53.939 62.1988 54.2136 61.9242L58.818 57.3197L57.7587 56.2603C55.2834 59.0988 52.7777 61.9304 50.2446 64.7492L48.8089 66.3813C49.9724 67.5702 50.6136 69.1405 50.6117 70.8045C50.6156 74.3059 47.7736 77.1289 44.2865 77.1289H44.279C40.0115 77.1289 36.9411 72.9665 38.2604 68.8625C36.8762 69.3062 35.344 69.2672 33.9452 68.7008C31.5896 67.744 29.9972 65.4424 30.0003 62.8367C29.9962 59.3787 32.8063 56.5161 36.3217 56.5161H36.3311C38.1788 56.5161 39.9272 57.3185 41.1291 58.7173C41.4971 58.9808 41.5203 59.5143 41.191 59.8104L41.1844 59.8161C41.1807 59.8198 41.1779 59.8227 41.1741 59.8255C40.8779 60.0943 40.4105 60.0604 40.156 59.7467C39.2175 58.5889 37.8216 57.9233 36.3264 57.9223C33.5812 57.9243 31.4083 60.1464 31.4065 62.8367C31.4096 67.2681 36.7943 69.4033 39.8519 66.2743L41.9726 64.1537C42.8565 63.2706 43.3431 62.0875 43.3431 60.8228C43.3431 59.741 42.969 58.6947 42.2922 57.8754C42.2912 57.8754 42.2912 57.8744 42.2912 57.8744C42.0849 57.6681 42.0057 57.1392 42.4215 56.8384C42.7201 56.5692 43.0204 56.2934 43.3169 56.0211L43.3169 56.0211L43.3169 56.0211L43.3169 56.021C43.6946 55.6742 44.0659 55.3331 44.4194 55.0188C44.4194 55.0178 44.4194 55.0178 44.4203 55.0178C46.5439 53.1241 48.6917 51.2328 50.8507 49.3527L49.809 48.311L45.2045 52.9155C45.0673 53.0528 44.8873 53.1214 44.7074 53.1214C44.5274 53.1214 44.3474 53.0528 44.2102 52.9155C43.9356 52.6409 43.9356 52.1958 44.2102 51.9211L48.8146 47.3167L47.8083 46.3104L43.2039 50.9148C43.0666 51.0521 42.8866 51.1207 42.7067 51.1207C42.5268 51.1207 42.3468 51.0521 42.2096 50.9148C41.935 50.6402 41.935 50.1951 42.2096 49.9204L46.814 45.316L45.8078 44.3097L41.2034 48.9142C41.0661 49.0514 40.8861 49.1201 40.7062 49.1201C40.5263 49.1201 40.3463 49.0514 40.209 48.9142C39.9344 48.6396 39.9344 48.1945 40.209 47.9198L44.8135 43.3153L43.8073 42.3091L39.2028 46.9136C39.0656 47.0508 38.8856 47.1194 38.7057 47.1194C38.5258 47.1194 38.3458 47.0508 38.2085 46.9136C37.9339 46.639 37.9339 46.1938 38.2085 45.9192L42.8129 41.3147L41.8067 40.3085L37.2023 44.9129C37.065 45.0502 36.885 45.1188 36.7051 45.1188C36.5252 45.1188 36.3452 45.0502 36.208 44.9129C35.9334 44.6383 35.9334 44.1932 36.208 43.9185L40.8124 39.3141L39.8062 38.3079L35.2017 42.9124C35.0644 43.0497 34.8844 43.1183 34.7045 43.1183C34.5246 43.1183 34.3446 43.0497 34.2073 42.9124C33.9328 42.6378 33.9328 42.1927 34.2073 41.918L38.8119 37.3136L37.8057 36.3073L33.2011 40.9118C33.0639 41.049 32.8839 41.1177 32.704 41.1177C32.5241 41.1177 32.3441 41.049 32.2068 40.9118C31.9322 40.6372 31.9322 40.1921 32.2068 39.9174L36.8113 35.3129L35.805 34.3067L31.2005 38.9112C30.926 39.1857 30.4808 39.1857 30.2062 38.9112C29.9316 38.6366 29.9316 38.1914 30.2062 37.9167L36.7993 31.3235C38.1701 29.9531 40.4004 29.9529 41.7712 31.3235L55.6535 45.2056C56.8694 44.1652 58.0863 43.1305 59.3023 42.1038C64.3028 37.8813 69.4262 33.6729 74.5308 29.5957C74.9058 29.2948 75.3783 29.1289 75.861 29.1289H75.8638C76.4223 29.1289 76.9694 29.3544 77.3665 29.7478ZM37.7938 32.318L36.7994 33.3123L51.9144 48.4274C52.8026 47.6569 53.6925 46.8897 54.5833 46.1245L40.7769 32.318C39.9544 31.4956 38.6161 31.4956 37.7938 32.318ZM74.8112 66.3523C75.2097 66.7507 75.4291 67.2804 75.4291 67.8438C75.4291 68.4072 75.2097 68.9369 74.8112 69.3353L73.8169 70.3296L64.5479 61.0607L58.6842 55.197C59.4557 54.3089 60.2247 53.4203 60.9898 52.5311L74.8112 66.3523ZM49.4322 63.2604C49.4923 63.3018 49.5458 63.3387 49.5898 63.3724C65.1172 46.0676 76.4408 31.7248 76.4983 31.6236L76.086 32.0357L76.0706 32.0511C72.5752 35.5453 48.8853 59.2273 48.8071 59.3164C48.5515 59.6044 48.1055 59.6348 47.8143 59.3755C47.5246 59.1186 47.4974 58.6733 47.7553 58.3827C47.8738 58.249 71.9685 34.1639 75.1577 30.9758L75.1633 30.9703L75.5038 30.6298C75.229 30.7872 60.6033 42.472 45.3583 56.065L45.3554 56.0687C44.9628 56.4187 44.6087 56.7443 44.2406 57.0827L44.2406 57.0827L44.2403 57.083L44.2398 57.0834L44.239 57.0842C44.0864 57.2245 43.9313 57.367 43.7701 57.5144C44.4113 58.4931 44.7507 59.6378 44.7497 60.8228C44.7497 62.4446 44.1159 63.9993 42.9667 65.1485L40.8808 67.2344C40.8682 67.2523 40.8379 67.2842 40.7943 67.3302L40.7941 67.3304L40.7941 67.3305C40.4632 67.6797 39.3648 68.8389 39.362 70.8044C39.362 73.5388 41.5787 75.719 44.2838 75.7226C47.0206 75.7207 49.2036 73.5142 49.2056 70.8044C49.2044 69.3281 48.5584 67.9417 47.3784 66.9784C47.2293 66.8575 47.1346 66.6775 47.1206 66.4862C47.1056 66.295 47.1712 66.1029 47.2996 65.9604C47.6375 65.5872 47.9437 65.2363 48.2748 64.8568L48.2753 64.8562C48.3965 64.7173 48.5209 64.5747 48.6515 64.4257C48.5999 64.3882 48.5503 64.3545 48.5006 64.3216C47.5499 63.702 46.9274 62.6885 46.7934 61.542H46.7924C46.7443 61.1252 47.068 60.7563 47.4928 60.7563C47.8481 60.7563 48.1471 61.0227 48.1893 61.3769C48.3209 62.4941 49.027 62.9809 49.4322 63.2604ZM32.8133 62.8402C32.8131 59.7351 36.5973 58.137 38.8152 60.3548C40.1876 61.7268 40.1874 63.9538 38.8152 65.3257C38.1299 66.0108 37.2295 66.3535 36.3294 66.3535C35.429 66.3535 34.529 66.011 33.8436 65.3257C33.1792 64.6614 32.8133 63.7787 32.8133 62.8402ZM36.3294 60.7324C34.4429 60.7324 33.5206 63.0141 34.8378 64.3312C35.6603 65.1535 36.9985 65.1533 37.8209 64.3312C39.1321 63.0202 38.2213 60.7325 36.3294 60.7324ZM44.2841 67.2899C42.8383 67.2899 41.5964 68.12 41.0429 69.4563C40.4867 70.7992 40.7762 72.2683 41.7984 73.2903C42.4773 73.9691 43.3519 74.3249 44.2551 74.3249C44.7114 74.3249 45.1751 74.234 45.6241 74.048C46.966 73.4921 47.7996 72.2493 47.7996 70.8047C47.7995 68.8667 46.2225 67.2899 44.2841 67.2899ZM45.0858 72.7489C44.4568 73.0093 43.524 73.0272 42.7925 72.2959C42.0606 71.5641 42.08 70.6273 42.342 69.9944C42.602 69.3668 43.2487 68.6961 44.284 68.6961C45.447 68.6961 46.3933 69.642 46.3933 70.8047C46.3933 71.8388 45.7179 72.4871 45.0858 72.7489Z" fill="url(#paint1_linear_0_642)"/>
<defs>
<linearGradient id="paint0_linear_0_642" x1="-10.5111" y1="47.4216" x2="51.3198" y2="116.786" gradientUnits="userSpaceOnUse">
<stop stop-color="#F0D9D4"/>
<stop offset="1" stop-color="#E9C9C2"/>
</linearGradient>
<linearGradient id="paint1_linear_0_642" x1="17.4934" y1="42.2092" x2="43.654" y2="90.2092" gradientUnits="userSpaceOnUse">
<stop stop-color="#AC6C44"/>
<stop offset="1" stop-color="#301103"/>
</linearGradient>
</defs>
</svg>
