<svg width="105" height="105" viewBox="0 0 105 105" fill="none" xmlns="http://www.w3.org/2000/svg">
<g id="icon">
<circle id="Oval" cx="52.5" cy="52.5" r="52.5" fill="url(#paint0_linear_0_735)"/>
<path id="Combined Shape" fill-rule="evenodd" clip-rule="evenodd" d="M64.6078 28.1441C61.3016 26.5383 57.6723 25.7089 53.9968 25.7191C40.5811 25.718 29.6482 36.6316 29.6248 50.0464C29.623 50.494 29.26 50.8561 28.8124 50.8568H28.8114C28.5958 50.8568 28.3891 50.7711 28.2369 50.6185C28.0847 50.4658 27.9994 50.2589 28 50.0434C28.0028 48.2862 28.1824 46.5337 28.5362 44.8125C28.8812 43.1426 29.3904 41.5109 30.0564 39.9412C35.0002 28.3108 47.5831 21.9114 59.8939 24.7665C61.7668 25.2009 63.5854 25.8433 65.3156 26.6818C65.7193 26.8771 65.8884 27.3625 65.6934 27.7663C65.5568 28.0463 65.2728 28.2244 64.9612 28.2253C64.8388 28.2254 64.7179 28.1976 64.6078 28.1441ZM67.95 29.8078C67.7392 29.8516 67.5196 29.8098 67.3395 29.6917C67.0646 29.5116 66.9252 29.1836 66.9865 28.8607C67.0478 28.5377 67.2976 28.2836 67.6194 28.2167C67.9412 28.1498 68.2716 28.2835 68.4564 28.5553C68.6413 28.827 68.6441 29.1834 68.4637 29.4581C68.3456 29.6382 68.1608 29.764 67.95 29.8078ZM45.3468 48.4718C45.3154 48.4681 45.2839 48.4663 45.2523 48.4663C43.9317 48.4679 42.6294 48.7753 41.4475 49.3645C41.05 49.5672 40.8903 50.0525 41.0899 50.4516C41.2895 50.8507 41.7735 51.0141 42.1742 50.8177C43.1161 50.3482 44.1527 50.0997 45.2051 50.0911C46.4451 50.2427 48.6274 50.7449 49.3604 51.4779C49.6776 51.7951 50.192 51.7951 50.5093 51.4779C50.8266 51.1606 50.8266 50.6462 50.5093 50.3289C49.1309 48.9507 45.7301 48.5171 45.3468 48.4718ZM68.0615 66.0052C67.8838 65.8834 67.665 65.8371 67.4532 65.8766C67.2414 65.9161 67.0539 66.0381 66.9321 66.2158C65.4471 68.3803 63.0391 70.5706 59.774 72.7266C56.2715 75.0453 51.722 75.0453 48.2195 72.7266C44.1841 70.0616 39.3736 65.9439 39.3736 61.4586V50.9035C39.3736 50.4548 39.0099 50.0911 38.5612 50.0911C38.1125 50.0911 37.7488 50.4548 37.7488 50.9035V61.4586C37.7488 66.6665 42.9559 71.1973 47.3241 74.0818C51.3695 76.7598 56.6241 76.7598 60.6695 74.0818C64.1101 71.8103 66.6679 69.473 68.2716 67.1346C68.5253 66.7647 68.4313 66.2591 68.0615 66.0052ZM41.2364 56.3524C41.3887 56.5047 41.5954 56.5903 41.8108 56.5903C42.0263 56.5903 42.2329 56.5047 42.3853 56.3524L43.491 55.2467C43.8398 55.4977 44.2096 55.7182 44.5962 55.9057L43.6736 56.8282C43.4683 57.0335 43.3882 57.3326 43.4633 57.613C43.5384 57.8933 43.7574 58.1123 44.0378 58.1875C44.3181 58.2626 44.6173 58.1824 44.8225 57.9772L46.3213 56.4783C46.7091 56.5522 47.1029 56.5897 47.4976 56.5903C49.4039 56.5903 50.402 55.6474 50.5093 55.54L49.3604 54.391L49.3697 54.3819C49.3442 54.4058 48.7314 54.9655 47.4976 54.9655C45.4453 54.9655 44.0217 53.5901 44.0101 53.5786C43.8577 53.4263 43.6511 53.3407 43.4356 53.3407C43.2202 53.3407 43.0135 53.4263 42.8612 53.5786L41.2364 55.2034C41.084 55.3558 40.9984 55.5624 40.9984 55.7779C40.9984 55.9934 41.084 56.2 41.2364 56.3524ZM49.1224 67.1515C49.1224 68.722 50.4457 71.2135 53.9968 71.2135C57.548 71.2135 58.8713 68.722 58.8713 67.1515C58.8713 66.8976 58.7525 66.6583 58.5504 66.5047C57.8418 65.9664 56.088 64.7143 55.1047 64.7143C54.695 64.7265 54.3027 64.8828 53.9968 65.1557C53.691 64.8828 53.2987 64.7265 52.889 64.7143C51.9057 64.7143 50.1519 65.9663 49.4433 66.5047C49.2412 66.6583 49.1224 66.8976 49.1224 67.1515ZM52.8675 66.3418C52.9648 66.3881 53.1315 66.5578 53.3627 66.8469C53.5168 67.0394 53.7502 67.1515 53.9968 67.1515C54.2435 67.1515 54.4769 67.0394 54.631 66.8469C54.861 66.5595 55.0271 66.3899 55.1244 66.3427C55.4418 66.3969 56.331 66.9081 57.1889 67.52C57.0243 68.2012 56.3939 69.5887 53.9968 69.5887C51.5998 69.5887 50.9694 68.2012 50.8048 67.52C51.6689 66.9035 52.5638 66.3899 52.8675 66.3418ZM28.8124 52.4826C28.3637 52.4826 28 52.8463 28 53.295V75.2755C28 75.7242 28.3637 76.0879 28.8124 76.0879C29.2611 76.0879 29.6248 75.7242 29.6248 75.2755V53.295C29.6248 52.8463 29.2611 52.4826 28.8124 52.4826ZM79.356 44.3444C78.5343 40.7082 76.9371 37.2924 74.6735 34.3305C73.5615 32.8739 72.2994 31.5383 70.908 30.3457C70.5671 30.0545 70.0548 30.094 69.7625 30.434C69.4706 30.7748 69.5102 31.2876 69.8509 31.5795C75.2583 36.2093 78.3704 42.9725 78.3689 50.0911V75.2755C78.3689 75.7242 78.7326 76.0879 79.1813 76.0879C79.63 76.0879 79.9937 75.7242 79.9937 75.2755V50.0911C79.9944 48.1578 79.7805 46.2304 79.356 44.3444ZM57.2465 46.0291C57.2465 46.4778 56.8827 46.8415 56.4341 46.8415C55.9854 46.8415 55.6217 46.4778 55.6217 46.0291V39.5299C55.6217 39.0812 55.9854 38.7175 56.4341 38.7175C56.8827 38.7175 57.2465 39.0812 57.2465 39.5299V46.0291ZM75.6989 70.4011C75.7452 70.4011 75.7913 70.3972 75.8369 70.3895C76.0493 70.3531 76.2386 70.2339 76.3631 70.058C76.4876 69.8822 76.5371 69.664 76.5008 69.4516C76.2477 67.9722 75.7986 66.533 75.1652 65.1722C75.0471 64.902 74.7919 64.717 74.4984 64.6888C74.2048 64.6606 73.9191 64.7937 73.7518 65.0365C73.5844 65.2793 73.5618 65.5937 73.6927 65.858C74.2652 67.0878 74.6711 68.3885 74.8997 69.7256C74.9663 70.1152 75.3037 70.4004 75.6989 70.4011ZM57.4205 49.1055C58.1033 52.4293 60.6281 55.0691 63.9183 55.8992C67.7245 56.8521 71.0831 59.094 73.423 62.2436C73.5979 62.4767 73.6346 62.7857 73.519 63.0533C73.4035 63.3208 73.1535 63.506 72.8639 63.5386C72.5742 63.5711 72.2894 63.446 72.1174 63.2107C70.0019 60.3632 66.9653 58.3364 63.5242 57.475C59.6269 56.4913 56.6364 53.3639 55.8278 49.4266C55.768 49.1411 55.8659 48.8455 56.0842 48.6521C56.3026 48.4586 56.6078 48.3971 56.884 48.4908C57.1602 48.5845 57.365 48.8191 57.4205 49.1055ZM45.8728 39.5299C45.8728 39.9786 46.2366 40.3423 46.6852 40.3423C47.1339 40.3423 47.4976 39.9786 47.4976 39.5299C47.5002 37.2875 49.3173 35.4704 51.5596 35.4679C52.0083 35.4679 52.372 35.1042 52.372 34.6555C52.372 34.2068 52.0083 33.8431 51.5596 33.8431C48.4204 33.8467 45.8764 36.3906 45.8728 39.5299ZM53.9968 47.3538C53.9906 52.889 57.7589 57.7153 63.1303 59.0518C69.2255 60.5683 73.5016 66.045 73.4945 72.326V75.2755C73.4945 75.7242 73.1308 76.0879 72.6821 76.0879C72.2334 76.0879 71.8697 75.7242 71.8697 75.2755V72.326C71.8759 66.7909 68.1076 61.9645 62.7363 60.628C56.641 59.1116 52.3649 53.6348 52.372 47.3538V39.5299C52.372 39.0812 52.0083 38.7175 51.5596 38.7175C51.111 38.7175 50.7472 39.0812 50.7472 39.5299V41.1547C50.7472 42.2662 50.1678 43.0766 49.0252 43.5636C48.1663 43.9296 47.0722 44.0934 45.8055 44.2831L45.805 44.2831C41.4919 44.9288 36.124 45.7324 36.124 54.9655V61.4139C36.1221 65.8473 34.9652 70.2036 32.7674 74.0538C32.5445 74.4427 32.0487 74.5775 31.6595 74.3551C31.2703 74.1327 31.1348 73.6372 31.3566 73.2477C33.4144 69.6431 34.4974 65.5645 34.4992 61.4139V54.9655C34.4992 50.2961 35.7718 47.0663 38.3899 45.0916C40.6087 43.4181 43.3563 43.0068 45.5643 42.6762C48.0927 42.2977 49.1224 42.0541 49.1224 41.1547V39.5299C49.1224 38.1839 50.2136 37.0927 51.5596 37.0927C52.9057 37.0927 53.9968 38.1839 53.9968 39.5299V47.3538ZM76.7441 73.6507C76.7441 74.0994 76.3804 74.4631 75.9317 74.4631C75.483 74.4631 75.1193 74.0994 75.1193 73.6507C75.1193 73.2021 75.483 72.8383 75.9317 72.8383C76.3804 72.8383 76.7441 73.2021 76.7441 73.6507ZM54.8092 35.4679C55.2579 35.4679 55.6217 35.1042 55.6217 34.6555C55.6217 34.2068 55.2579 33.8431 54.8092 33.8431C54.3606 33.8431 53.9968 34.2068 53.9968 34.6555C53.9968 35.1042 54.3606 35.4679 54.8092 35.4679Z" fill="url(#paint1_linear_0_735)"/>
</g>
<defs>
<linearGradient id="paint0_linear_0_735" x1="-10.5111" y1="47.4216" x2="51.3198" y2="116.786" gradientUnits="userSpaceOnUse">
<stop stop-color="#F0D9D4"/>
<stop offset="1" stop-color="#E9C9C2"/>
</linearGradient>
<linearGradient id="paint1_linear_0_735" x1="14.4526" y1="38.2606" x2="42.795" y2="90.2577" gradientUnits="userSpaceOnUse">
<stop stop-color="#AC6C44"/>
<stop offset="1" stop-color="#301103"/>
</linearGradient>
</defs>
</svg>
