<svg width="105" height="105" viewBox="0 0 105 105" fill="none" xmlns="http://www.w3.org/2000/svg">
<circle cx="52.5" cy="52.5" r="52.5" fill="url(#paint0_linear_0_627)"/>
<path fill-rule="evenodd" clip-rule="evenodd" d="M71.6698 47.7404C70.2284 46.291 68.3974 45.2908 66.3988 44.8611V42.5502C66.3988 35.1378 60.3899 29.1289 52.9776 29.1289C45.5652 29.1289 39.5563 35.1378 39.5563 42.5502V44.8653C35.7548 45.6985 32.7107 48.5393 31.6171 52.2742C30.5234 56.0092 31.5546 60.0432 34.3063 62.7953L52.3957 80.8825C52.5527 81.0402 52.766 81.1289 52.9886 81.1289C53.2112 81.1289 53.4245 81.0402 53.5815 80.8825L71.6688 62.7953C75.8197 58.6355 75.8201 51.9007 71.6698 47.7404ZM41.234 42.5502C41.234 36.0643 46.4918 30.8066 52.9776 30.8066C59.4634 30.8066 64.7212 36.0643 64.7212 42.5502V44.6378C64.5293 44.6284 64.3364 44.6221 64.1434 44.6221C63.7761 44.6224 63.409 44.6413 63.0435 44.6787V42.5502C63.0435 36.9909 58.5369 32.4842 52.9776 32.4842C47.4183 32.4842 42.9117 36.9909 42.9117 42.5502V44.6766C42.5562 44.6409 42.1966 44.6221 41.8338 44.6221C41.6324 44.6221 41.4332 44.6284 41.234 44.6399V42.5502ZM61.3659 44.9869V42.5502C61.3659 37.9174 57.6103 34.1619 52.9776 34.1619C48.3449 34.1619 44.5893 37.9174 44.5893 42.5502V44.9817C46.3961 45.4628 48.0427 46.4147 49.3612 47.7404L52.9881 51.3673L56.616 47.7404C57.929 46.4201 59.5676 45.4702 61.3659 44.9869ZM70.4829 61.6094L52.9881 79.1031L35.4922 61.6094C32.0073 58.1041 32.0156 52.4399 35.5107 48.9448C39.0058 45.4496 44.67 45.4414 48.1753 48.9263L52.3957 53.1467C52.7232 53.474 53.254 53.474 53.5815 53.1467L57.8019 48.9263C60.0651 46.649 63.3731 45.7554 66.4751 46.5833C69.5771 47.4113 71.9999 49.8344 72.8273 52.9366C73.6547 56.0387 72.7606 59.3466 70.4829 61.6094ZM52.9776 55.9714C51.1723 55.9714 49.5696 57.1266 48.9987 58.8392C48.4278 60.5519 49.0169 62.4377 50.4611 63.5209V66.8762C50.4611 67.3394 50.8367 67.715 51.2999 67.715H54.6552C55.1185 67.715 55.4941 67.3394 55.4941 66.8762V63.5209C56.9383 62.4377 57.5274 60.5519 56.9565 58.8392C56.3856 57.1266 54.7829 55.9714 52.9776 55.9714ZM54.2352 62.3465C53.9762 62.4963 53.8166 62.7728 53.8164 63.0721V66.0373H52.1388V63.0721C52.1388 62.7726 51.9792 62.4959 51.72 62.346C50.7333 61.7767 50.2521 60.6156 50.5468 59.5153C50.8414 58.415 51.8385 57.6498 52.9776 57.6498C54.1167 57.6498 55.1138 58.415 55.4084 59.5153C55.7031 60.6156 55.2219 61.7767 54.2352 62.346V62.3465Z" fill="url(#paint1_linear_0_627)"/>
<defs>
<linearGradient id="paint0_linear_0_627" x1="-10.5111" y1="47.4216" x2="51.3198" y2="116.786" gradientUnits="userSpaceOnUse">
<stop stop-color="#F0D9D4"/>
<stop offset="1" stop-color="#E9C9C2"/>
</linearGradient>
<linearGradient id="paint1_linear_0_627" x1="19.8288" y1="43.2992" x2="50.6495" y2="90.7087" gradientUnits="userSpaceOnUse">
<stop stop-color="#AC6C44"/>
<stop offset="1" stop-color="#301103"/>
</linearGradient>
</defs>
</svg>
