<svg width="105" height="105" viewBox="0 0 105 105" fill="none" xmlns="http://www.w3.org/2000/svg">
<g id="icon">
<circle id="Oval" cx="52.5" cy="52.5" r="52.5" fill="url(#paint0_linear_0_719)"/>
<path id="Combined Shape" fill-rule="evenodd" clip-rule="evenodd" d="M68.6414 47.3436C65.7854 44.341 61.9773 42.2173 57.7298 41.3385V38.7021C57.7298 38.1163 57.5101 37.5304 57.0707 37.1643C56.6313 36.7981 56.1187 36.5052 55.5328 36.5052H54.3611L54.2879 25.2274C54.2879 24.5683 53.7753 24.1289 53.1894 24.1289C52.5303 24.1289 52.0909 24.6415 52.0909 25.2274L52.1641 36.5052H50.9924C50.4066 36.5052 49.8207 36.7249 49.4545 37.1643C49.0884 37.6037 48.7955 38.1163 48.7955 38.7021V41.2653C44.3283 42.2173 40.447 44.341 37.4444 47.3436C33.4167 51.3713 31 56.8638 31 63.0153C31 63.6744 31.5126 64.1138 32.0985 64.1138H43.8157C44.1086 66.2375 44.9874 68.1415 46.452 69.6062C48.1364 71.2905 50.4798 72.3158 53.0429 72.3158C55.6061 72.3158 57.9495 71.2905 59.6338 69.6062C61.0985 68.1415 61.9773 66.2375 62.2702 64.1138H73.9874C74.6465 64.1138 75.0859 63.6011 75.0859 63.0153C75.0859 56.937 72.596 51.3713 68.6414 47.3436ZM50.9192 38.7754H55.4596V40.9723H55.3131H54.947C54.3611 40.8991 53.702 40.8991 53.1162 40.8991C52.7256 40.8503 52.335 40.8666 51.9445 40.8828H51.9444C51.7492 40.891 51.5539 40.8991 51.3586 40.8991C51.2121 40.8991 51.0657 40.8991 50.9192 40.9723V38.7754ZM53.1162 70.0456C55.0202 70.0456 56.7778 69.3132 58.096 67.9951C59.1944 66.9698 59.8535 65.5784 60.1465 64.1138H53.1162H46.1591C46.3788 65.6516 47.1111 66.9698 48.1364 67.9951C49.3813 69.24 51.1389 70.0456 53.1162 70.0456ZM61.3182 61.8436H53.1162H44.9141H33.2702C33.5631 56.7905 35.6869 52.2501 39.0556 48.9547C42.1313 45.8789 46.1591 43.8284 50.6995 43.3158C50.7727 43.3158 50.8643 43.2975 50.9558 43.2792C51.0473 43.2609 51.1389 43.2425 51.2121 43.2425C51.798 43.1693 52.4571 43.1693 53.0429 43.1693C53.702 43.1693 54.2879 43.1693 54.947 43.2425C55.0202 43.2425 55.1117 43.2608 55.2033 43.2792C55.2948 43.2975 55.3864 43.3158 55.4596 43.3158C60 43.8284 64.0278 45.8789 67.1035 48.9547C70.4722 52.3234 72.596 56.7905 72.8889 61.8436H61.3182ZM52.0177 74.9521C52.0177 74.3663 52.4571 73.8537 53.1162 73.8537C53.7753 73.8537 54.2146 74.293 54.2146 74.9521V81.0304C54.2146 81.6163 53.7753 82.1289 53.1162 82.1289C52.5303 82.1289 52.0177 81.6895 52.0177 81.0304V74.9521ZM63.149 78.0279L60.0732 72.7552C59.7803 72.2425 59.048 72.0228 58.5354 72.3158C58.0227 72.6087 57.803 73.341 58.096 73.8537L61.1717 79.1264C61.4646 79.639 62.197 79.8587 62.7096 79.5658C63.2222 79.2728 63.4419 78.5405 63.149 78.0279ZM64.0278 67.9951L69.3005 71.0708C69.8864 71.3638 70.0328 72.0961 69.7399 72.6087C69.447 73.1946 68.7146 73.341 68.202 73.0481L62.9293 69.9723C62.3434 69.6794 62.197 68.9471 62.4899 68.4345C62.7828 67.8486 63.5152 67.7021 64.0278 67.9951ZM43.7424 68.4345C43.4495 67.9218 42.7172 67.7021 42.2045 67.9951L36.9318 71.0708C36.4192 71.3638 36.1995 72.0961 36.4924 72.6087C36.7854 73.1213 37.5177 73.341 38.0303 73.0481L43.303 69.9723C43.8157 69.6062 44.0354 68.9471 43.7424 68.4345ZM46.1591 72.7552C46.452 72.2425 47.1843 72.0228 47.697 72.3158C48.2828 72.6087 48.4293 73.341 48.1364 73.8537L45.0606 79.1264C44.7677 79.7122 44.0354 79.8587 43.5227 79.5658C42.9369 79.2728 42.7904 78.5405 43.0833 78.0279L46.1591 72.7552Z" fill="url(#paint1_linear_0_719)"/>
</g>
<defs>
<linearGradient id="paint0_linear_0_719" x1="-10.5111" y1="47.4216" x2="51.3198" y2="116.786" gradientUnits="userSpaceOnUse">
<stop stop-color="#F0D9D4"/>
<stop offset="1" stop-color="#E9C9C2"/>
</linearGradient>
<linearGradient id="paint1_linear_0_719" x1="19.513" y1="39.9342" x2="55.1379" y2="89.6185" gradientUnits="userSpaceOnUse">
<stop stop-color="#AC6C44"/>
<stop offset="1" stop-color="#301103"/>
</linearGradient>
</defs>
</svg>
