<svg width="65" height="81" viewBox="0 0 65 81" fill="none" xmlns="http://www.w3.org/2000/svg">
<path fill-rule="evenodd" clip-rule="evenodd" d="M54.4724 56.2151C60.9436 50.2989 65 41.8043 65 32.3663C65 14.4909 50.4493 0 32.5 0C14.5507 0 0 14.4909 0 32.3663C0 41.8043 4.05637 50.2989 10.5276 56.2151H10.2632C10.2632 56.2151 20.7553 64.9993 26.5132 72.3983C27.2536 73.3497 27.9025 74.2677 28.4714 75.1452C29.5354 76.7865 35.8658 76.8936 36.8621 75.2103C37.59 73.9807 38.4151 72.7378 39.3421 71.5465C44.1117 65.4176 54.7368 56.2151 54.7368 56.2151H54.4724Z" fill="url(#paint0_linear_0_1124)"/>
<ellipse cx="32.5" cy="33.3521" rx="27.3" ry="27.4429" fill="white"/>
<path fill-rule="evenodd" clip-rule="evenodd" d="M16.7106 40.8957L30.2348 33.0468C30.2304 32.9854 30.2282 32.9234 30.2282 32.8611L30.2316 32.7338L16.7108 24.8866V40.8957H16.7106ZM33.2741 30.4307C33.7319 30.5383 34.1415 30.7733 34.464 31.0963C34.6245 31.2581 34.7625 31.4416 34.8748 31.6414L48.1752 23.922L33.2741 15.2737V30.4307ZM35.1905 32.7428L35.1934 32.8611C35.1934 32.9202 35.1912 32.9793 35.1873 33.0375L48.7276 40.8958V24.8868L35.1907 32.743L35.1905 32.7428ZM34.8497 34.1265C34.7431 34.3085 34.6132 34.4752 34.4662 34.6236C34.1426 34.9483 33.7319 35.1843 33.2741 35.2914V50.5088L48.1752 41.8605L34.8497 34.1265ZM32.164 35.2953C31.6994 35.1899 31.2831 34.9527 30.9574 34.6258C30.8114 34.4786 30.6833 34.3134 30.5766 34.1338L17.2628 41.8605L32.164 50.5088V35.2953ZM30.5505 31.6338C30.6609 31.4374 30.7974 31.2578 30.955 31.0987C31.2826 30.7701 31.6992 30.5324 32.1638 30.427V15.2738L17.2627 23.9221L30.5505 31.6338ZM33.6824 31.8842C33.4343 31.6353 33.0902 31.4813 32.7106 31.4813C32.331 31.4813 31.9868 31.6358 31.7388 31.8842C31.4912 32.1336 31.338 32.4795 31.338 32.8611C31.338 33.2427 31.4917 33.5887 31.7388 33.8379C31.987 34.0862 32.331 34.2409 32.7106 34.2409C33.0902 34.2409 33.4344 34.0868 33.6824 33.8379C33.9293 33.5885 34.0831 33.2427 34.0831 32.8611C34.0831 32.4795 33.9298 32.1335 33.6824 31.8842ZM33.0302 13.8471L49.5259 23.4211C49.7102 23.5121 49.8373 23.7017 49.8373 23.9221V41.8605V41.8693V41.8749L49.8366 41.8783L49.8356 41.8962V41.9035L49.8349 41.9052L49.8344 41.9142V41.9176L49.8332 41.9232L49.8327 41.9316L49.8322 41.9321L49.8305 41.9455L49.8295 41.9499C49.7995 42.1312 49.6847 42.2831 49.5259 42.3617L33.0302 51.9357L33.0292 51.9362L33.0258 51.9384L33.0219 51.9411L33.0181 51.9433L33.0176 51.9438L33.0137 51.9467L33.0093 51.9489L33.0066 51.9506L33.0049 51.9516L33.0005 51.9545L32.9962 51.9567L32.9955 51.9572L32.9945 51.9577L32.9923 51.9594L32.9879 51.9616L32.984 51.9638L32.9833 51.9645L32.979 51.9667L32.9746 51.9689L32.9717 51.9706L32.9695 51.9711L32.9651 51.9733L32.9608 51.9755L32.9598 51.976L32.9564 51.9777L32.952 51.9799L32.9476 51.9821H32.9469L32.9426 51.9843L32.9375 51.986L32.9353 51.9872L32.9331 51.9882L32.9287 51.9899L32.9237 51.9921L32.9232 51.9926L32.9188 51.9938L32.9144 51.9955L32.9105 51.9972L32.9095 51.9977L32.9051 51.9994L32.9001 52.0011L32.8979 52.0016L32.895 52.0028L32.89 52.0045L32.8856 52.0062H32.8844L32.8805 52.0074L32.8755 52.0091L32.8716 52.0101H32.8704L32.8654 52.0118L32.8603 52.0128L32.8581 52.0135L32.8552 52.0145L32.8502 52.0157L32.8451 52.0169H32.8446L32.8402 52.018L32.8347 52.0191L32.8308 52.0202H32.8298L32.8247 52.0214L32.8197 52.0224H32.8175L32.8146 52.0231L32.8091 52.0243L32.804 52.0248H32.8035L32.7991 52.026L32.7935 52.0265L32.7897 52.027H32.7885L32.7829 52.0277L32.7779 52.0282L32.7757 52.0287H32.7723L32.7673 52.0294L32.7617 52.0299L32.7566 52.0306H32.7511L32.7472 52.0311H32.7455H32.7404L32.7349 52.0316H32.7332H32.7293H32.7243H32.7187H32.7131H32.7081H32.7042H32.7025L32.697 52.0311H32.6919H32.6902L32.6863 52.0306H32.6808L32.6757 52.0299L32.6702 52.0294L32.6651 52.0287H32.6617L32.6595 52.0282L32.6545 52.0277L32.6489 52.027H32.6477L32.6439 52.0265L32.6383 52.026L32.6339 52.0248H32.6334L32.6284 52.0243L32.6228 52.0231L32.6199 52.0224H32.6177L32.6127 52.0214L32.6076 52.0202H32.6064L32.6026 52.0191L32.597 52.018L32.5926 52.0169H32.5921L32.5871 52.0157L32.582 52.0145L32.5793 52.0135L32.5771 52.0128L32.5721 52.0118L32.567 52.0101H32.5658L32.5619 52.0091L32.5569 52.0074L32.553 52.0062H32.5525L32.5474 52.0045L32.5424 52.0028L32.5395 52.0016L32.5373 52.0011L32.5323 51.9994L32.5279 51.9977L32.5267 51.9972L32.5228 51.9955L32.5185 51.9938L32.5141 51.9926L32.5136 51.9921L32.5085 51.9899L32.5041 51.9882L32.5019 51.9872L32.4997 51.986L32.4947 51.9843L32.4903 51.9821H32.4898L32.4854 51.9799L32.481 51.9777L32.4777 51.976L32.4765 51.9755L32.4721 51.9733L32.4677 51.9711L32.4655 51.9706L32.4627 51.9689L32.4583 51.9667L32.4539 51.9645L32.4534 51.9638L32.4495 51.9616L32.4451 51.9594L32.4429 51.9577L32.4418 51.9572L32.4413 51.9567L32.4369 51.9545L32.4325 51.9516L32.4308 51.9506L32.4279 51.9489L32.4236 51.9467L32.4197 51.9438L32.4192 51.9433L32.4153 51.9411L32.4114 51.9384L32.408 51.9362L32.407 51.9357L15.9113 42.3617C15.7271 42.2707 15.6 42.0811 15.6 41.8606V23.9223V23.9133V23.9077L15.6005 23.9044L15.6017 23.8864V23.8791L15.6022 23.8774L15.6028 23.8684V23.865L15.604 23.8594L15.6045 23.851L15.605 23.8505L15.6067 23.8371L15.6079 23.8327C15.6379 23.6514 15.7527 23.4997 15.9115 23.4209L32.4072 13.8469L32.4082 13.8464L32.4116 13.8442L32.4155 13.8413L32.4193 13.8391L32.4198 13.8386L32.4237 13.8357L32.4281 13.8329L32.431 13.8318L32.4327 13.8307L32.437 13.8278L32.4414 13.8249H32.4419L32.4453 13.8227L32.4497 13.8198L32.4536 13.8181L32.4541 13.8176L32.4584 13.8154L32.4628 13.8125L32.4657 13.8115L32.4679 13.8103L32.4723 13.8081L32.4767 13.8059H32.4778L32.4812 13.8037L32.4856 13.8015L32.489 13.8003L32.4901 13.7998H32.4906L32.495 13.7976L32.5001 13.7954L32.5023 13.7949L32.5045 13.7937L32.5088 13.7915L32.5117 13.7903L32.5139 13.7897L32.5144 13.7891L32.5188 13.7874L32.5232 13.7858L32.5271 13.7846L32.5282 13.7841L32.5326 13.7824L32.5377 13.7807L32.5399 13.78L32.5427 13.779L32.5478 13.7773L32.5528 13.7756H32.5533L32.5572 13.7739L32.5623 13.7729L32.5662 13.7717L32.5673 13.771L32.5724 13.77L32.5774 13.7683H32.5796L32.5823 13.7671L32.5874 13.7659L32.5925 13.7647H32.593L32.5973 13.7637L32.6029 13.7625L32.6068 13.7614H32.608L32.613 13.7603L32.6181 13.7592H32.6203L32.6231 13.7585L32.6287 13.7575L32.6338 13.7568H32.6343L32.6386 13.7558L32.6442 13.7551L32.6481 13.7546H32.6493L32.6548 13.7541L32.657 13.7534L32.6621 13.7529H32.6654L32.6705 13.7522L32.6761 13.7517L32.6811 13.7512H32.6867L32.6906 13.7505H32.6922H32.6973L32.7029 13.75H32.7045H32.7084H32.7135H32.719H32.7246H32.7297H32.7335H32.7352L32.7408 13.7505H32.7458H32.7475L32.7514 13.7512H32.757L32.762 13.7517L32.7676 13.7522L32.7726 13.7529H32.776L32.7811 13.7534L32.7833 13.7541L32.7888 13.7546H32.79L32.7939 13.7551L32.7994 13.7558L32.8038 13.7568H32.8043L32.8094 13.7575L32.815 13.7585L32.8178 13.7592H32.82L32.8251 13.7603L32.8301 13.7614H32.8311L32.835 13.7625L32.8406 13.7637L32.845 13.7647H32.8455L32.8505 13.7659L32.8556 13.7671L32.8584 13.7683H32.8606L32.8657 13.77L32.8708 13.771L32.8719 13.7717L32.8758 13.7729L32.8809 13.7739L32.8847 13.7756H32.8859L32.8903 13.7773L32.8954 13.779L32.8982 13.78L32.9004 13.7807L32.9055 13.7824L32.9099 13.7841L32.9109 13.7846L32.9147 13.7858L32.9191 13.7874L32.9235 13.7891L32.924 13.7897L32.9269 13.7903L32.9291 13.7915L32.9335 13.7937L32.9356 13.7949L32.9378 13.7954L32.9429 13.7976L32.9473 13.7998H32.948L32.949 13.8003L32.9523 13.8015L32.9567 13.8037L32.9601 13.8059H32.9611L32.9655 13.8081L32.9699 13.8103L32.9721 13.8115L32.9749 13.8125L32.9793 13.8154L32.9837 13.8176L32.9844 13.8181L32.9882 13.8198L32.9926 13.8227L32.996 13.8249H32.9967L33.001 13.8278L33.0054 13.8307L33.0071 13.8318L33.0098 13.8329L33.0142 13.8357L33.0181 13.8386L33.0186 13.8391L33.0225 13.8413L33.0263 13.8442L33.0297 13.8464L33.0307 13.8469L33.0302 13.8471Z" fill="url(#paint1_linear_0_1124)"/>
<defs>
<linearGradient id="paint0_linear_0_1124" x1="69.7965" y1="33.6407" x2="19.1919" y2="-5.90573" gradientUnits="userSpaceOnUse">
<stop stop-color="#C88C61"/>
<stop offset="1" stop-color="#EBBE9C"/>
</linearGradient>
<linearGradient id="paint1_linear_0_1124" x1="52.3637" y1="29.649" x2="27.95" y2="8.38567" gradientUnits="userSpaceOnUse">
<stop stop-color="#C88C61"/>
<stop offset="1" stop-color="#EBBE9C"/>
</linearGradient>
</defs>
</svg>
