<svg width="17" height="19" viewBox="0 0 15 17" fill="none" xmlns="http://www.w3.org/2000/svg">
<path id="Shape" fill-rule="evenodd" clip-rule="evenodd" d="M8.35295 15.1155C6.31251 14.0606 4.52478 12.5696 3.03968 10.676C1.81666 9.10858 0.992998 7.64096 0.447007 6.06018C0.091333 5.03851 -0.0459446 4.19321 0.0133344 3.39783C0.0632535 2.76219 0.303489 2.21308 0.727802 1.76048L1.89466 0.515831C2.2285 0.176381 2.60913 0 3.00536 0C3.40472 0 3.78223 0.176381 4.10358 0.512503C4.31574 0.722164 4.53102 0.95512 4.73693 1.18142L4.74554 1.19087C4.84859 1.30403 4.94893 1.4142 5.05517 1.52753L5.98491 2.51925C6.32499 2.87867 6.50282 3.29466 6.50282 3.71731C6.50282 4.13996 6.32187 4.55595 5.98491 4.91537C5.88819 5.01854 5.79148 5.1217 5.69788 5.22487C5.43268 5.5144 5.15813 5.81059 4.86485 6.09346C5.07389 6.60929 5.3734 7.11514 5.81955 7.7175C6.7025 8.8723 7.626 9.77084 8.64311 10.4597C8.74607 10.5296 8.8615 10.5928 8.9863 10.6594L8.98632 10.6594C9.08615 10.7127 9.19222 10.7692 9.29518 10.8325L10.4121 9.64105C10.7397 9.29162 11.1235 9.10525 11.5228 9.10525C11.9222 9.10525 12.3028 9.29162 12.621 9.64438L14.4961 11.6445C15.1669 12.36 15.1669 13.2985 14.5024 14.0373C14.3588 14.197 14.2091 14.3534 14.0625 14.5032C14.0477 14.5185 14.0329 14.5338 14.0182 14.549C13.819 14.7551 13.6288 14.9518 13.4603 15.1688C13.4572 15.1754 13.4509 15.1821 13.4478 15.1854C12.9393 15.7744 12.3153 16.0607 11.5384 16.0607C11.4695 16.0607 11.4035 16.0576 11.3348 16.0544L11.3263 16.054C10.1688 15.9741 9.12982 15.5082 8.35295 15.1155ZM1.27067 2.33622C0.971158 2.6557 0.812041 3.0251 0.774601 3.46772C0.724682 4.13663 0.84636 4.87211 1.16771 5.78729C1.68563 7.27821 2.46873 8.66929 3.63247 10.1635C5.04581 11.9673 6.7493 13.3883 8.68991 14.39C9.40437 14.7528 10.356 15.1787 11.3793 15.2486C11.4323 15.252 11.4885 15.2553 11.5415 15.2553C12.0938 15.2553 12.5212 15.0623 12.88 14.6496C13.0747 14.4011 13.2889 14.1793 13.4962 13.9646C13.5082 13.9522 13.5201 13.9398 13.5321 13.9274C13.6787 13.7777 13.816 13.6346 13.947 13.4848C14.3276 13.0622 14.3308 12.6295 13.9564 12.2302L12.075 10.2268C11.9534 10.087 11.7599 9.93058 11.5228 9.93058C11.3294 9.93058 11.1328 10.0337 10.9519 10.2268L9.78501 11.4714C9.73197 11.528 9.56973 11.6977 9.32014 11.6977C9.2203 11.6977 9.12046 11.6711 9.0175 11.6145C9.01126 11.6112 9.0058 11.6079 9.00034 11.6045C8.99488 11.6012 8.98942 11.5979 8.98318 11.5946C8.88022 11.5247 8.76478 11.4614 8.63999 11.3949C8.61746 11.3826 8.59467 11.3703 8.5717 11.3579C8.4579 11.2965 8.33978 11.2328 8.22815 11.1553C7.14241 10.4198 6.15651 9.46467 5.22053 8.23333C4.69949 7.53446 4.36566 6.94874 4.12542 6.33308C4.12386 6.32808 4.1223 6.32392 4.12074 6.31976C4.11918 6.3156 4.11762 6.31144 4.11606 6.30645C4.05367 6.10677 4.01311 5.84387 4.27206 5.56765L4.28766 5.55101C4.56457 5.28948 4.81749 5.01657 5.08338 4.72966C5.10508 4.70624 5.12687 4.68273 5.14877 4.65912C5.19713 4.60754 5.24548 4.55512 5.29384 4.50271C5.3422 4.45029 5.39056 4.39788 5.43892 4.34629C5.63236 4.13996 5.7322 3.9303 5.7322 3.72397C5.7322 3.51764 5.63236 3.30798 5.43892 3.10164L4.50918 2.10992C4.45497 2.05044 4.40076 1.99179 4.34693 1.93354C4.29233 1.87446 4.23812 1.81581 4.1847 1.75715C4.15648 1.72661 4.12854 1.69631 4.10081 1.66623C3.92004 1.47016 3.74819 1.28377 3.56695 1.10488C3.38912 0.911856 3.19568 0.815346 3.00536 0.815346C2.81193 0.815346 2.61225 0.911856 2.43129 1.09822L1.27067 2.33622Z" fill="white"/>
</svg>
