<svg width="105" height="105" viewBox="0 0 105 105" fill="none" xmlns="http://www.w3.org/2000/svg">
<g id="icon">
<circle id="Oval" cx="52.5" cy="52.5" r="52.5" fill="url(#paint0_linear_0_676)"/>
<path id="Combined Shape" fill-rule="evenodd" clip-rule="evenodd" d="M31.5616 41.1476C31.8635 41.1472 32.1416 40.9834 32.2884 40.7195C32.4352 40.4557 32.4277 40.1331 32.2689 39.8763C30.0943 36.3543 31.1807 31.7368 34.6974 29.5539C34.9599 29.4017 35.1189 29.1189 35.1125 28.8156C35.1061 28.5124 34.9354 28.2365 34.6668 28.0955C34.3983 27.9545 34.0743 27.9706 33.821 28.1376C29.5232 30.8054 28.1954 36.4483 30.8526 40.7527C31.0045 40.9983 31.2728 41.1478 31.5616 41.1476ZM54.43 78C61.0541 78 67.7599 76.2829 67.7599 73.0013V71.6049C68.7289 71.004 69.3492 69.9732 69.4262 68.8356V35.5107C69.3509 34.3536 68.7139 33.3067 67.7208 32.7081C67.3151 29.6272 60.845 28.0126 54.43 28.0126C48.0149 28.0126 41.5449 29.6272 41.1391 32.7081C40.1461 33.3067 39.509 34.3536 39.4337 35.5107V68.8356C39.5108 69.9732 40.131 71.004 41.1 71.6049V73.0013C41.1 76.2829 47.8058 78 54.43 78ZM66.0937 73.0013C66.0937 74.3601 61.5498 76.3338 54.43 76.3338C47.3101 76.3338 42.7662 74.3601 42.7662 73.0013V72.5847C45.693 73.9502 50.1344 74.6675 54.43 74.6675C58.7256 74.6675 63.1669 73.9485 66.0937 72.5847V73.0013ZM41.1 68.8356C41.1 70.5752 46.1712 73.0013 54.43 73.0013C62.6887 73.0013 67.7599 70.5752 67.7599 68.8356V38.28C65.1014 40.2812 59.6553 41.3426 54.43 41.3426C49.2046 41.3426 43.7585 40.2812 41.1 38.28V68.8356ZM54.43 29.6788C61.5498 29.6788 66.0937 31.6525 66.0937 33.0113C66.0937 34.3702 61.5498 36.3438 54.43 36.3438C47.3101 36.3438 42.7662 34.3702 42.7662 33.0113C42.7662 31.6525 47.3101 29.6788 54.43 29.6788ZM54.43 38.0101C48.8822 38.0101 43.2928 36.8012 41.6182 34.4818C41.32 34.7457 41.1345 35.114 41.1 35.5107C41.1 37.2503 46.1712 39.6763 54.43 39.6763C62.6887 39.6763 67.7599 37.2503 67.7599 35.5107C67.7254 35.114 67.5399 34.7457 67.2417 34.4818C65.5672 36.8012 59.9777 38.0101 54.43 38.0101ZM47.765 33.8445H49.4312C49.8913 33.8445 50.2643 33.4714 50.2643 33.0113C50.2643 32.5512 49.8913 32.1782 49.4312 32.1782H47.765C47.3049 32.1782 46.9319 32.5512 46.9319 33.0113C46.9319 33.4714 47.3049 33.8445 47.765 33.8445ZM61.095 33.8445H59.4287C58.9686 33.8445 58.5956 33.4714 58.5956 33.0113C58.5956 32.5512 58.9686 32.1782 59.4287 32.1782H61.095C61.5551 32.1782 61.9281 32.5512 61.9281 33.0113C61.9281 33.4714 61.5551 33.8445 61.095 33.8445ZM44.4325 43.0088C44.4325 43.4689 44.0595 43.8419 43.5994 43.8419C43.1392 43.8419 42.7662 43.4689 42.7662 43.0088C42.7662 42.5487 43.1392 42.1757 43.5994 42.1757C44.0595 42.1757 44.4325 42.5487 44.4325 43.0088ZM47.765 44.6751C48.2251 44.6751 48.5981 44.3021 48.5981 43.8419C48.5981 43.3818 48.2251 43.0088 47.765 43.0088C47.3049 43.0088 46.9319 43.3818 46.9319 43.8419C46.9319 44.3021 47.3049 44.6751 47.765 44.6751ZM46.0987 46.3413C46.0987 46.8014 45.7257 47.1744 45.2656 47.1744C44.8055 47.1744 44.4325 46.8014 44.4325 46.3413C44.4325 45.8812 44.8055 45.5082 45.2656 45.5082C45.7257 45.5082 46.0987 45.8812 46.0987 46.3413ZM49.4312 48.0076C49.8913 48.0076 50.2643 47.6346 50.2643 47.1744C50.2643 46.7143 49.8913 46.3413 49.4312 46.3413C48.9711 46.3413 48.5981 46.7143 48.5981 47.1744C48.5981 47.6346 48.9711 48.0076 49.4312 48.0076ZM64.4275 46.3413C64.4275 46.8014 64.0544 47.1744 63.5943 47.1744C63.1342 47.1744 62.7612 46.8014 62.7612 46.3413C62.7612 45.8812 63.1342 45.5082 63.5943 45.5082C64.0544 45.5082 64.4275 45.8812 64.4275 46.3413ZM59.4287 48.0076C59.8888 48.0076 60.2618 47.6346 60.2618 47.1744C60.2618 46.7143 59.8888 46.3413 59.4287 46.3413C58.9686 46.3413 58.5956 46.7143 58.5956 47.1744C58.5956 47.6346 58.9686 48.0076 59.4287 48.0076ZM55.2631 47.1744C55.2631 47.6346 54.8901 48.0076 54.43 48.0076C53.9698 48.0076 53.5968 47.6346 53.5968 47.1744C53.5968 46.7143 53.9698 46.3413 54.43 46.3413C54.8901 46.3413 55.2631 46.7143 55.2631 47.1744ZM51.9306 45.5082C52.3907 45.5082 52.7637 45.1352 52.7637 44.6751C52.7637 44.2149 52.3907 43.8419 51.9306 43.8419C51.4705 43.8419 51.0975 44.2149 51.0975 44.6751C51.0975 45.1352 51.4705 45.5082 51.9306 45.5082ZM66.0937 43.0088C66.0937 43.4689 65.7207 43.8419 65.2606 43.8419C64.8004 43.8419 64.4274 43.4689 64.4274 43.0088C64.4274 42.5487 64.8004 42.1757 65.2606 42.1757C65.7207 42.1757 66.0937 42.5487 66.0937 43.0088ZM61.095 44.6751C61.5551 44.6751 61.9281 44.3021 61.9281 43.8419C61.9281 43.3818 61.5551 43.0088 61.095 43.0088C60.6348 43.0088 60.2618 43.3818 60.2618 43.8419C60.2618 44.3021 60.6348 44.6751 61.095 44.6751ZM57.7625 44.6751C57.7625 45.1352 57.3895 45.5082 56.9293 45.5082C56.4692 45.5082 56.0962 45.1352 56.0962 44.6751C56.0962 44.2149 56.4692 43.8419 56.9293 43.8419C57.3895 43.8419 57.7625 44.2149 57.7625 44.6751ZM43.5994 49.6738C44.0595 49.6738 44.4325 49.3008 44.4325 48.8407C44.4325 48.3806 44.0595 48.0076 43.5994 48.0076C43.1392 48.0076 42.7662 48.3806 42.7662 48.8407C42.7662 49.3008 43.1392 49.6738 43.5994 49.6738ZM48.5981 49.6738C48.5981 50.1339 48.2251 50.5069 47.765 50.5069C47.3049 50.5069 46.9319 50.1339 46.9319 49.6738C46.9319 49.2137 47.3049 48.8407 47.765 48.8407C48.2251 48.8407 48.5981 49.2137 48.5981 49.6738ZM51.9306 51.34C52.3907 51.34 52.7637 50.967 52.7637 50.5069C52.7637 50.0468 52.3907 49.6738 51.9306 49.6738C51.4705 49.6738 51.0975 50.0468 51.0975 50.5069C51.0975 50.967 51.4705 51.34 51.9306 51.34ZM66.0937 48.8407C66.0937 49.3008 65.7207 49.6738 65.2606 49.6738C64.8004 49.6738 64.4274 49.3008 64.4274 48.8407C64.4274 48.3806 64.8004 48.0076 65.2606 48.0076C65.7207 48.0076 66.0937 48.3806 66.0937 48.8407ZM61.095 50.5069C61.5551 50.5069 61.9281 50.1339 61.9281 49.6738C61.9281 49.2137 61.5551 48.8407 61.095 48.8407C60.6348 48.8407 60.2618 49.2137 60.2618 49.6738C60.2618 50.1339 60.6348 50.5069 61.095 50.5069ZM57.7625 50.5069C57.7625 50.967 57.3895 51.34 56.9293 51.34C56.4692 51.34 56.0962 50.967 56.0962 50.5069C56.0962 50.0468 56.4692 49.6738 56.9293 49.6738C57.3895 49.6738 57.7625 50.0468 57.7625 50.5069ZM58.9663 53.9794C59.222 53.8087 59.5509 53.7927 59.8219 53.9377C60.0929 54.0828 60.262 54.3652 60.2618 54.6725V61.3375C60.2618 62.7179 59.1428 63.8369 57.7625 63.8369C56.3821 63.8369 55.2631 62.7179 55.2631 61.3375C55.2631 59.9572 56.3821 58.8382 57.7625 58.8382C58.0469 58.8409 58.3288 58.8928 58.5956 58.9915V56.0114C56.9813 56.5199 55.2764 56.6748 53.5968 56.4654V63.0038C53.5968 64.3841 52.4778 65.5031 51.0975 65.5031C49.7171 65.5031 48.5981 64.3841 48.5981 63.0038C48.5981 61.6234 49.7171 60.5044 51.0975 60.5044C51.3819 60.5072 51.6638 60.559 51.9306 60.6577V55.5057C51.9305 55.2562 52.0423 55.0198 52.2351 54.8616C52.4279 54.7033 52.6815 54.6397 52.9262 54.6884C52.9678 54.6967 56.7885 55.4315 58.9663 53.9794ZM50.2643 63.0038C50.2643 63.4639 50.6374 63.8369 51.0975 63.8369C51.5576 63.8369 51.9306 63.4639 51.9306 63.0038C51.9306 62.5437 51.5576 62.1707 51.0975 62.1707C50.6374 62.1707 50.2643 62.5437 50.2643 63.0038ZM57.7625 62.1707C57.3023 62.1707 56.9293 61.7976 56.9293 61.3375C56.9293 60.8774 57.3023 60.5044 57.7625 60.5044C58.2226 60.5044 58.5956 60.8774 58.5956 61.3375C58.5956 61.7976 58.2226 62.1707 57.7625 62.1707ZM36.2042 30.8683C36.4194 30.9189 36.6056 31.053 36.7219 31.2409C36.9637 31.6321 36.8429 32.1452 36.452 32.3873C34.4979 33.5996 33.8938 36.1648 35.1015 38.1217C35.2644 38.3749 35.2781 38.6963 35.1372 38.9624C34.9964 39.2284 34.7229 39.3978 34.4219 39.4054C34.1209 39.413 33.8393 39.2576 33.6852 38.999C31.9941 36.2597 32.8394 32.6685 35.5747 30.971C35.7626 30.8546 35.9891 30.8177 36.2042 30.8683ZM75.0389 28.1376C74.7857 27.9706 74.4617 27.9545 74.1931 28.0955C73.9245 28.2365 73.7538 28.5124 73.7474 28.8156C73.7411 29.1189 73.9001 29.4017 74.1625 29.5539C77.6792 31.7368 78.7656 36.3543 76.5911 39.8763C76.3649 40.2663 76.49 40.7654 76.8734 41.0026C77.2567 41.2398 77.7592 41.1291 78.0074 40.7527C80.6646 36.4483 79.3368 30.8054 75.0389 28.1376ZM74.6562 39.3716C74.4411 39.4223 74.2146 39.3853 74.0267 39.2689C73.6358 39.0262 73.5157 38.5126 73.7584 38.1217C74.9661 36.1648 74.362 33.5996 72.4079 32.3873C72.1493 32.2332 71.9939 31.9516 72.0015 31.6506C72.0091 31.3496 72.1785 31.0761 72.4446 30.9353C72.7107 30.7944 73.032 30.8081 73.2852 30.971C76.0203 32.6687 76.8652 36.2599 75.1739 38.999C75.0576 39.187 74.8714 39.321 74.6562 39.3716ZM33.821 77.875C33.9522 77.9569 34.1037 78.0002 34.2584 78C34.6307 78.0001 34.9578 77.7532 35.0598 77.3951C35.1618 77.0371 35.0139 76.6548 34.6974 76.4587C31.1807 74.2758 30.0943 69.6583 32.2689 66.1363C32.495 65.7463 32.3699 65.2472 31.9865 65.01C31.6032 64.7728 31.1007 64.8835 30.8526 65.2599C28.1954 69.5642 29.5232 75.2072 33.821 77.875ZM34.2037 66.6409C34.4189 66.5903 34.6453 66.6273 34.8332 66.7437C35.2241 66.9864 35.3442 67.5 35.1015 67.8909C33.8938 69.8478 34.4979 72.413 36.452 73.6253C36.7106 73.7794 36.866 74.061 36.8584 74.362C36.8508 74.663 36.6815 74.9364 36.4154 75.0773C36.1493 75.2182 35.8279 75.2045 35.5747 75.0416C32.8396 73.3439 31.9948 69.7527 33.686 67.0136C33.8023 66.8256 33.9885 66.6916 34.2037 66.6409ZM74.6016 78C74.7562 78.0002 74.9078 77.9569 75.0389 77.875C79.3368 75.2072 80.6646 69.5642 78.0074 65.2599C77.7592 64.8835 77.2567 64.7728 76.8734 65.01C76.49 65.2472 76.3649 65.7463 76.5911 66.1363C78.7656 69.6583 77.6792 74.2758 74.1625 76.4587C73.8461 76.6548 73.6981 77.0371 73.8001 77.3951C73.9021 77.7532 74.2293 78.0001 74.6016 78ZM72.6557 75.1443C72.4405 75.0937 72.2543 74.9596 72.138 74.7716C71.8965 74.3801 72.0181 73.8669 72.4096 73.6253C74.3631 72.4124 74.9665 69.8473 73.7584 67.8909C73.5955 67.6377 73.5818 67.3163 73.7227 67.0502C73.8636 66.7841 74.137 66.6147 74.438 66.6072C74.739 66.5996 75.0206 66.755 75.1747 67.0136C76.8658 69.7529 76.0206 73.3441 73.2852 75.0416C73.0973 75.158 72.8708 75.1949 72.6557 75.1443Z" fill="url(#paint1_linear_0_676)"/>
</g>
<defs>
<linearGradient id="paint0_linear_0_676" x1="-10.5111" y1="47.4216" x2="51.3198" y2="116.786" gradientUnits="userSpaceOnUse">
<stop stop-color="#F0D9D4"/>
<stop offset="1" stop-color="#E9C9C2"/>
</linearGradient>
<linearGradient id="paint1_linear_0_676" x1="16.4834" y1="41.6253" x2="43.7656" y2="91.5762" gradientUnits="userSpaceOnUse">
<stop stop-color="#AC6C44"/>
<stop offset="1" stop-color="#301103"/>
</linearGradient>
</defs>
</svg>
