<svg width="20" height="26" viewBox="0 0 20 26" fill="none" xmlns="http://www.w3.org/2000/svg">
<path fill-rule="evenodd" clip-rule="evenodd" d="M17.6266 10.2546H17.6621C18.7808 10.2546 19.6965 11.2314 19.6992 12.4457L19.6998 12.7366C19.7045 14.8353 19.7063 15.6337 19.7037 17.6493C19.7034 18.0023 19.7041 18.3924 19.705 18.8328C19.706 19.3744 19.7072 19.9922 19.7066 20.7109C19.7039 23.6234 17.5468 25.9954 14.8862 25.9954V26.0001H9.63872C7.8825 26.0001 6.26265 24.9518 5.41125 23.2713L0.754968 14.0756C0.66247 13.8928 0.706536 13.6686 0.860976 13.537L1.33989 13.1293C1.8928 12.6014 2.6334 12.3323 3.38627 12.3853C4.15494 12.4432 4.86541 12.8265 5.34806 13.4439L5.89848 14.1307L5.90783 4.13826C5.90845 2.92204 6.82595 1.93262 7.94653 1.93262C9.06835 1.93262 9.99063 2.92268 9.99063 4.13975V9.17612C10.3228 8.91216 10.7325 8.77186 11.1524 8.77848H11.1902C11.9736 8.77848 12.655 9.2577 12.9946 9.96416C13.364 9.56886 13.8733 9.34398 14.4064 9.34014C15.2763 9.34014 16.019 9.93746 16.3112 10.7684C16.6723 10.4351 17.1412 10.2518 17.6266 10.2546ZM18.8451 18.5437C18.8455 18.2178 18.8458 17.9207 18.8461 17.6463L18.8461 17.6137C18.8488 15.5336 18.8498 14.7534 18.8447 12.4468C18.843 11.7143 18.3127 11.1293 17.6621 11.1293H17.6266C16.9743 11.1293 16.4293 11.7045 16.4293 12.4393V13.4994C16.4293 13.741 16.2387 13.9368 16.0036 13.9368C15.7685 13.9368 15.5779 13.741 15.5779 13.4994V11.5417C15.5779 10.8066 15.0612 10.2091 14.4091 10.2091C13.7533 10.2091 13.2366 10.8069 13.2366 11.5417V13.6169C13.2366 13.8584 13.046 14.0542 12.8109 14.0542C12.5758 14.0542 12.3852 13.8584 12.3852 13.6169V10.9719C12.3852 10.2373 11.8425 9.65322 11.1902 9.65322H11.1524C10.5173 9.65322 9.99063 10.2068 9.99063 10.9151V13.8928C9.99063 14.1343 9.80002 14.3302 9.56493 14.3302C9.32984 14.3302 9.13923 14.1343 9.13923 13.8928V11.0023C9.13923 10.9973 9.13897 10.9922 9.13871 10.9871C9.13845 10.9819 9.13819 10.9767 9.13819 10.9715C9.13819 10.9595 9.13845 10.9475 9.13871 10.9356C9.13897 10.9238 9.13923 10.9121 9.13923 10.9004V4.13975C9.13923 3.40511 8.59879 2.80714 7.94694 2.80714C7.29509 2.80714 6.75465 3.40447 6.75424 4.13869L6.74655 15.3514C6.74655 15.5359 6.63347 15.7008 6.46427 15.7629C6.29507 15.8251 6.10592 15.7715 5.99201 15.6286L4.68894 13.9996C4.35449 13.5688 3.86103 13.3002 3.3262 13.2581C2.80302 13.2229 2.28919 13.4125 1.90735 13.7817C1.9053 13.7836 1.90325 13.7856 1.9012 13.7875C1.89782 13.7907 1.89441 13.794 1.89093 13.7969L1.66893 13.9872L6.16682 22.8672C6.87085 24.257 8.20136 25.1252 9.63893 25.1252H14.8612C17.0543 25.1252 18.8405 23.1429 18.8428 20.712C18.8436 19.8629 18.8444 19.1531 18.8451 18.5437Z" fill="white"/>
<path d="M4.55546 4.32842C4.79055 4.32842 4.98116 4.13259 4.98116 3.89105C4.98802 2.22209 6.30689 0.873031 7.93111 0.873031C9.55554 0.873031 10.8742 2.22209 10.8811 3.89105C10.8811 4.13259 11.0717 4.32842 11.3068 4.32842C11.5419 4.32842 11.7325 4.13259 11.7325 3.89105C11.7246 1.73965 10.0251 0 7.93111 0C5.83733 0 4.13766 1.73965 4.12976 3.89105C4.12976 4.13259 4.32037 4.32842 4.55546 4.32842Z" fill="white"/>
</svg>
