<svg width="75" height="72" viewBox="0 0 75 72" fill="none" xmlns="http://www.w3.org/2000/svg">
<path fill-rule="evenodd" clip-rule="evenodd" d="M36.662 34.0367L28.107 55.123H23.403L0.431763 0.243042H8.89896L27.715 45.4014H28.0286L46.2958 0.243042H50.3726L43.3839 17.4686C44.5141 16.8707 45.742 16.3801 47.0674 15.9969C49.2364 15.3697 51.5231 15.0561 53.9274 15.0561C56.2271 15.0561 58.4354 15.3305 60.5522 15.8793C62.669 16.4281 64.5636 17.2382 66.2362 18.3097C67.9087 19.3812 69.2938 20.6878 70.3914 22.2297C71.489 23.7716 72.1945 25.5094 72.5081 27.4433H67.177C66.7588 24.3596 65.3607 22.099 62.9826 20.6617C60.6044 19.2244 57.7167 18.5057 54.3194 18.5057C52.281 18.5057 50.4778 18.754 48.9098 19.2505C47.3418 19.747 46.022 20.4004 44.9506 21.2105C43.8791 22.0206 43.069 22.9745 42.5202 24.0721C41.9714 25.1697 41.697 26.3457 41.697 27.6001C41.697 29.8476 42.5071 31.6508 44.1274 33.0097C45.7476 34.3686 47.773 35.5708 50.2034 36.6161C52.6338 37.6614 55.2732 38.6545 58.1218 39.5953C60.9703 40.5361 63.6098 41.699 66.0402 43.0841C68.4706 44.4692 70.4959 46.194 72.1161 48.2585C73.7364 50.323 74.5466 52.9756 74.5466 56.2161C74.5466 58.5681 74.0762 60.711 73.1354 62.6449C72.1945 64.5788 70.8617 66.2252 69.1369 67.5841C67.4122 68.943 65.3346 69.9884 62.9042 70.7201C60.4738 71.4518 57.7428 71.8177 54.7114 71.8177C51.7322 71.8177 48.9882 71.4649 46.4794 70.7593C43.9706 70.0537 41.7884 69.0606 39.933 67.7801C38.0775 66.4996 36.614 64.9446 35.5426 63.1153C34.4711 61.286 33.8831 59.2476 33.7786 57.0001H39.1098C39.162 57.8886 39.3711 58.9732 39.737 60.2537C40.1028 61.5342 40.8084 62.7756 41.8538 63.9777C42.8991 65.1798 44.4148 66.2121 46.401 67.0745C48.3871 67.9369 51.0266 68.3681 54.3194 68.3681C58.4484 68.3681 61.7543 67.5841 64.237 66.0161C66.7196 64.4481 67.961 61.9654 67.961 58.5681C67.961 55.8502 67.177 53.6812 65.609 52.0609C64.041 50.4406 62.0679 49.0686 59.6898 47.9449C57.3116 46.8212 54.7375 45.815 51.9674 44.9265C49.1972 44.038 46.6231 42.9665 44.245 41.7121C41.8668 40.4577 39.8938 38.8897 38.3258 37.0081C37.6059 36.1443 37.0513 35.1539 36.662 34.0367Z" fill="url(#paint0_linear_0_828)"/>
<defs>
<linearGradient id="paint0_linear_0_828" x1="-6.98758" y1="32.5686" x2="34.9672" y2="81.3059" gradientUnits="userSpaceOnUse">
<stop stop-color="#F0D9D4"/>
<stop offset="1" stop-color="#E9C9C2"/>
</linearGradient>
</defs>
</svg>
